<svg xmlns="http://www.w3.org/2000/svg" xmlns:xlink="http://www.w3.org/1999/xlink" width="867.24" height="3008.43" viewBox="0 0 867.24 3008.43">
<image x="0.0" y="0.0" width="216.81" height="752.1075" xlink:href="file:///Users/ianbloom/Desktop/finalbattlewebsite/web/.pattern-preview/c1x2_cell.png"/>
<image x="216.81" y="0.0" width="216.81" height="752.1075" xlink:href="file:///Users/ianbloom/Desktop/finalbattlewebsite/web/.pattern-preview/c1x2_cell.png"/>
<image x="433.62" y="0.0" width="216.81" height="752.1075" xlink:href="file:///Users/ianbloom/Desktop/finalbattlewebsite/web/.pattern-preview/c1x2_cell.png"/>
<image x="650.4300000000001" y="0.0" width="216.81" height="752.1075" xlink:href="file:///Users/ianbloom/Desktop/finalbattlewebsite/web/.pattern-preview/c1x2_cell.png"/>
<image x="0.0" y="752.1075" width="216.81" height="752.1075" xlink:href="file:///Users/ianbloom/Desktop/finalbattlewebsite/web/.pattern-preview/c1x2_cell.png"/>
<image x="216.81" y="752.1075" width="216.81" height="752.1075" xlink:href="file:///Users/ianbloom/Desktop/finalbattlewebsite/web/.pattern-preview/c1x2_cell.png"/>
<image x="433.62" y="752.1075" width="216.81" height="752.1075" xlink:href="file:///Users/ianbloom/Desktop/finalbattlewebsite/web/.pattern-preview/c1x2_cell.png"/>
<image x="650.4300000000001" y="752.1075" width="216.81" height="752.1075" xlink:href="file:///Users/ianbloom/Desktop/finalbattlewebsite/web/.pattern-preview/c1x2_cell.png"/>
<image x="0.0" y="1504.215" width="216.81" height="752.1075" xlink:href="file:///Users/ianbloom/Desktop/finalbattlewebsite/web/.pattern-preview/c1x2_cell.png"/>
<image x="216.81" y="1504.215" width="216.81" height="752.1075" xlink:href="file:///Users/ianbloom/Desktop/finalbattlewebsite/web/.pattern-preview/c1x2_cell.png"/>
<image x="433.62" y="1504.215" width="216.81" height="752.1075" xlink:href="file:///Users/ianbloom/Desktop/finalbattlewebsite/web/.pattern-preview/c1x2_cell.png"/>
<image x="650.4300000000001" y="1504.215" width="216.81" height="752.1075" xlink:href="file:///Users/ianbloom/Desktop/finalbattlewebsite/web/.pattern-preview/c1x2_cell.png"/>
<image x="0.0" y="2256.3224999999998" width="216.81" height="752.1075" xlink:href="file:///Users/ianbloom/Desktop/finalbattlewebsite/web/.pattern-preview/c1x2_cell.png"/>
<image x="216.81" y="2256.3224999999998" width="216.81" height="752.1075" xlink:href="file:///Users/ianbloom/Desktop/finalbattlewebsite/web/.pattern-preview/c1x2_cell.png"/>
<image x="433.62" y="2256.3224999999998" width="216.81" height="752.1075" xlink:href="file:///Users/ianbloom/Desktop/finalbattlewebsite/web/.pattern-preview/c1x2_cell.png"/>
<image x="650.4300000000001" y="2256.3224999999998" width="216.81" height="752.1075" xlink:href="file:///Users/ianbloom/Desktop/finalbattlewebsite/web/.pattern-preview/c1x2_cell.png"/>
<line x1="0.0" y1="0" x2="0.0" y2="3008.43" stroke="red" stroke-width="1" opacity="0.5"/>
<line x1="216.81" y1="0" x2="216.81" y2="3008.43" stroke="red" stroke-width="1" opacity="0.5"/>
<line x1="433.62" y1="0" x2="433.62" y2="3008.43" stroke="red" stroke-width="1" opacity="0.5"/>
<line x1="650.4300000000001" y1="0" x2="650.4300000000001" y2="3008.43" stroke="red" stroke-width="1" opacity="0.5"/>
<line x1="867.24" y1="0" x2="867.24" y2="3008.43" stroke="red" stroke-width="1" opacity="0.5"/>
<line x1="0" y1="0.0" x2="867.24" y2="0.0" stroke="red" stroke-width="1" opacity="0.5"/>
<line x1="0" y1="752.1075" x2="867.24" y2="752.1075" stroke="red" stroke-width="1" opacity="0.5"/>
<line x1="0" y1="1504.215" x2="867.24" y2="1504.215" stroke="red" stroke-width="1" opacity="0.5"/>
<line x1="0" y1="2256.3224999999998" x2="867.24" y2="2256.3224999999998" stroke="red" stroke-width="1" opacity="0.5"/>
<line x1="0" y1="3008.43" x2="867.24" y2="3008.43" stroke="red" stroke-width="1" opacity="0.5"/>
</svg>