<svg xmlns="http://www.w3.org/2000/svg" viewBox="0 0 289.08 501.405" preserveAspectRatio="none"><defs><style>.st0{fill:none;stroke:#231f20;stroke-linejoin:bevel;stroke-width:2px}</style><symbol id="tile" viewBox="0 0 501.405 501.405" preserveAspectRatio="xMidYMid meet"><path class="st0" d="M147.59,106.68c25.37,43.95,38.73,93.8,38.73,144.54h0l-72.27-125.18,33.54-19.37h0Z"/>
  <path class="st0" d="M147.59,106.68C122.22,62.74,85.72,26.24,41.78.87h0l72.27,125.18s33.54-19.37,33.54-19.37Z"/>
  <path class="st0" d="M330.87.87h0c-43.95,25.37-80.44,61.87-105.81,105.81l33.54,19.36h0l33.54,19.37c25.37-43.95,38.73-93.8,38.73-144.54h0Z"/>
  <path class="st0" d="M292.13,145.41l-33.54-19.37h0l-33.54-19.37c-25.37,43.95-38.73,93.8-38.73,144.54h0c43.95-25.37,80.44-61.87,105.81-105.81h0Z"/>
  <path class="st0" d="M330.86,212.5c-50.75,0-100.6,13.36-144.54,38.73h144.54v-38.73Z"/>
  <path class="st0" d="M41.78.87h0s58.5,34.46,73.59,42.84c15.09,8.38,34.8,11.74,34.8,11.74-28.65,35.36,38.43,62.19,36.15-15.44v-.41h0c-50.74,0-100.59-13.36-144.54-38.73h0Z"/>
  <path class="st0" d="M475.41,251.23c0-50.75-13.36-100.6-38.73-144.54l-33.54,19.37h0l-33.54,19.36c25.37,43.95,61.87,80.44,105.81,105.81h0Z"/>
  <path class="st0" d="M436.68,106.68c-25.37-43.95-61.87-80.44-105.81-105.81h0c0,50.75,13.36,100.6,38.73,144.54l33.54-19.37h0l33.54-19.36h0Z"/>
  <path class="st0" d="M330.87,212.5c50.75,0,100.6,13.36,144.54,38.73h-144.54v-38.73Z"/>
  <path class="st0" d="M514.14,106.68c25.37-43.95,61.87-80.44,105.81-105.81h0l-72.27,125.18-33.54-19.37h0Z"/>
  <path class="st0" d="M514.14,106.68c-25.37,43.95-38.73,93.8-38.73,144.54h0l72.27-125.18-33.54-19.37h0Z"/>
  <path class="st0" d="M581.22,145.41c25.37-43.95,38.73-93.8,38.73-144.54h0l-72.27,125.18,33.54,19.37h0Z"/>
  <path class="st0" d="M581.22,145.41c-25.37,43.95-61.87,80.44-105.81,105.81h0l72.27-125.18,33.54,19.37Z"/>
  <path class="st0" d="M475.41,251.22h0c43.95,25.37,93.8,38.73,144.54,38.73v-38.73h0v-38.73c-50.75,0-100.6,13.36-144.54,38.73h0Z"/>
  <path class="st0" d="M581.22,357.04c25.37,43.95,38.73,93.8,38.73,144.54h0l-72.27-125.18,33.54-19.37h0Z"/>
  <path class="st0" d="M581.22,357.04c-25.37-43.95-61.87-80.44-105.81-105.81h0l72.27,125.18,33.54-19.37Z"/>
  <path class="st0" d="M147.59,395.77c25.37-43.95,38.73-93.8,38.73-144.54h0l-72.27,125.18,33.54,19.37h0Z"/>
  <path class="st0" d="M147.59,395.77c-25.37,43.95-61.87,80.44-105.81,105.81h0l72.27-125.18,33.54,19.37Z"/>
  <path class="st0" d="M330.86,289.96c-50.75,0-100.6-13.36-144.54-38.73h144.54v38.73Z"/>
  <path class="st0" d="M330.86,501.58c0-50.75-13.36-100.6-38.73-144.54l-33.54,19.37h0l-33.54,19.36c25.37,43.95,61.87,80.44,105.81,105.81h0Z"/>
  <path class="st0" d="M292.13,357.04c-25.37-43.95-61.87-80.44-105.81-105.81h0c0,50.75,13.36,100.6,38.73,144.54l33.54-19.37h0l33.54-19.37h0Z"/>
  <path class="st0" d="M330.86,289.96c50.75,0,100.6-13.36,144.54-38.73h-144.54v38.73Z"/>
  <path class="st0" d="M475.41,251.23h0c-43.95,25.37-80.44,61.87-105.81,105.81l33.54,19.36h0l33.54,19.37c25.37-43.95,38.73-93.8,38.73-144.54h0Z"/>
  <path class="st0" d="M436.68,395.77l-33.54-19.37h0l-33.54-19.37c-25.37,43.95-38.73,93.8-38.73,144.54h0c43.95-25.37,80.44-61.87,105.81-105.81h0Z"/>
  <path class="st0" d="M514.14,395.77c25.37,43.95,61.87,80.44,105.81,105.81h0l-72.27-125.18-33.54,19.37h0Z"/>
  <path class="st0" d="M514.14,395.77c-25.37-43.95-38.73-93.8-38.73-144.54h0l72.27,125.18-33.54,19.37h0Z"/>
  <path class="st0" d="M80.51,145.42c25.37,43.95,61.87,80.44,105.81,105.81h0l-72.27-125.18-33.54,19.37Z"/>
  <path class="st0" d="M80.51,145.42C55.14,101.47,41.78,51.62,41.78.88h0l72.27,125.18-33.54,19.37h0Z"/>
  <path class="st0" d="M186.32,251.23c-43.95-25.37-93.8-38.73-144.54-38.73v38.73h0v38.73c50.75,0,100.6-13.36,144.54-38.73h0Z"/>
  <path class="st0" d="M80.51,357.04c25.37-43.95,61.87-80.44,105.81-105.81h0l-72.27,125.18-33.54-19.37Z"/>
  <path class="st0" d="M80.51,357.04c-25.37,43.95-38.73,93.8-38.73,144.55h0l72.27-125.18-33.54-19.37h0Z"/>
  <path class="st0" d="M41.78.88c43.95,25.37,93.79,38.73,144.54,38.73V.88"/>
  <path class="st0" d="M186.32,501.59h0v-38.74c-50.75,0-100.6,13.36-144.54,38.73h0"/>
  <path class="st0" d="M475.41,501.59h0v-38.74c-50.75,0-100.6,13.36-144.54,38.73h0"/>
  <path class="st0" d="M619.94,501.59h0c-43.95-25.37-93.8-38.73-144.54-38.73v38.73h0"/>
  <path class="st0" d="M186.32.88v38.73c50.74,0,100.59-13.36,144.54-38.73"/>
  <path class="st0" d="M330.87.88c43.95,25.37,93.79,38.73,144.54,38.73V.88"/>
  <path class="st0" d="M475.41.88v38.73c50.74,0,100.59-13.36,144.54-38.73"/>
  <path class="st0" d="M330.86,501.59h0c-43.95-25.37-93.8-38.73-144.54-38.73v38.73h0"/>
  <path class="st0" d="M185.96,251.43h0s.59-67.89.3-85.16c-.28-17.26-7.23-36-7.23-36,44.94,7.13,34.64-64.37-31.44-23.59-.12.07-.24.14-.36.21h0c25.37,43.95,38.73,93.8,38.73,144.54h0Z"/>
  <path class="st0" d="M331.22,1.08h0s-59.09,33.44-73.9,42.31c-14.81,8.88-27.56,24.27-27.56,24.27-16.29-42.49-73.07,2.19-4.71,39.02.12.07.24.14.36.21h0c25.37-43.95,61.87-80.44,105.81-105.81h0Z"/>
  <path class="st0" d="M475.04,251.44h0s-58.5-34.46-73.59-42.84c-15.09-8.38-34.8-11.74-34.8-11.74,28.65-35.36-38.43-62.19-36.15,15.44v.41h0c50.74,0,100.59,13.36,144.54,38.73h0Z"/>
  <path class="st0" d="M330.86.87h0s-.59,67.89-.3,85.16c.28,17.26,7.23,36,7.23,36-44.94-7.13-34.64,64.37,31.44,23.59.12-.07.24-.14.36-.21h0c-25.37-43.95-38.73-93.8-38.73-144.54h0Z"/>
  <path class="st0" d="M185.6,251.22h0s59.09-33.44,73.9-42.31c14.81-8.88,27.56-24.27,27.56-24.27,16.29,42.49,73.07-2.19,4.71-39.02-.12-.07-.24-.14-.36-.21h0c-25.37,43.95-61.87,80.44-105.81,105.81h0Z"/>
  <path class="st0" d="M330.86.87h0s58.5,34.46,73.59,42.84,34.8,11.74,34.8,11.74c-28.65,35.36,38.43,62.19,36.15-15.44v-.41h0c-50.74,0-100.59-13.36-144.54-38.73h0Z"/>
  <path class="st0" d="M475.04,251.44h0s.59-67.89.3-85.16c-.28-17.26-7.23-36-7.23-36,44.94,7.13,34.64-64.37-31.44-23.59l-.36.21h0c25.37,43.95,38.73,93.8,38.73,144.54h0Z"/>
  <path class="st0" d="M620.3,1.09h0s-59.09,33.44-73.9,42.31c-14.81,8.88-27.56,24.27-27.56,24.27-16.29-42.49-73.07,2.19-4.71,39.02l.36.21h0c25.37-43.95,61.87-80.44,105.81-105.81h0Z"/>
  <path class="st0" d="M186.32,251.23h0s58.5,34.46,73.59,42.84,34.8,11.74,34.8,11.74c-28.65,35.36,38.43,62.19,36.15-15.44v-.41h0c-50.74,0-100.59-13.36-144.54-38.73h0Z"/>
  <path class="st0" d="M330.5,501.8h0s.59-67.89.3-85.16-7.23-36-7.23-36c44.94,7.13,34.64-64.37-31.44-23.59-.12.07-.24.14-.36.21h0c25.37,43.95,38.73,93.8,38.73,144.54h0Z"/>
  <path class="st0" d="M475.76,251.44h0s-59.09,33.44-73.9,42.31c-14.81,8.88-27.56,24.27-27.56,24.27-16.29-42.49-73.07,2.19-4.71,39.02.12.07.24.14.36.21h0c25.37-43.95,61.87-80.44,105.81-105.81h0Z"/>
  <path class="st0" d="M186.32,251.23h0s-59.09,33.44-73.9,42.31c-14.81,8.88-27.56,24.27-27.56,24.27-16.29-42.49-73.07,2.19-4.71,39.02.12.07.24.14.36.21h0c25.37-43.95,61.87-80.44,105.81-105.81h0Z"/>
  <path class="st0" d="M475.41,251.23h0s58.5,34.46,73.59,42.84c15.09,8.38,34.8,11.74,34.8,11.74-28.65,35.36,38.43,62.19,36.15-15.44v-.41h0c-50.74,0-100.59-13.36-144.54-38.73h0Z"/>
  <path class="st0" d="M619.58,501.79h0s.59-67.89.3-85.16c-.28-17.26-7.23-36-7.23-36,44.94,7.13,34.64-64.37-31.44-23.59-.12.07-.24.14-.36.21h0c25.37,43.95,38.73,93.8,38.73,144.54h0Z"/>
  <path class="st0" d="M330.5,501.79h0s-58.5-34.46-73.59-42.84-34.8-11.74-34.8-11.74c28.65-35.36-38.43-62.19-36.15,15.44v.41h0c50.74,0,100.59,13.36,144.54,38.73h0Z"/>
  <path class="st0" d="M186.32,251.22h0s-.59,67.89-.3,85.16c.28,17.26,7.23,36,7.23,36-44.94-7.13-34.64,64.37,31.44,23.59.12-.07.24-.14.36-.21h0c-25.37-43.95-38.73-93.8-38.73-144.54h0Z"/>
  <path class="st0" d="M41.06,501.58h0s59.09-33.44,73.9-42.31c14.81-8.88,27.56-24.27,27.56-24.27,16.29,42.49,73.07-2.19,4.71-39.02-.12-.07-.24-.14-.36-.21h0c-25.37,43.95-61.87,80.44-105.81,105.81h0Z"/>
  <path class="st0" d="M619.59,501.8h0s-58.5-34.46-73.59-42.84-34.8-11.74-34.8-11.74c28.65-35.36-38.43-62.19-36.15,15.44v.41h0c50.74,0,100.59,13.36,144.54,38.73h0Z"/>
  <path class="st0" d="M475.41,251.23h0s-.59,67.89-.3,85.16c.28,17.26,7.23,36,7.23,36-44.94-7.13-34.64,64.37,31.44,23.59.12-.07.24-.14.36-.21h0c-25.37-43.95-38.73-93.8-38.73-144.54h0Z"/>
  <path class="st0" d="M330.15,501.58h0s59.09-33.44,73.9-42.31c14.81-8.88,27.56-24.27,27.56-24.27,16.29,42.49,73.07-2.19,4.71-39.02-.12-.07-.24-.14-.36-.21h0c-25.37,43.95-61.87,80.44-105.81,105.81h0Z"/>
  <path class="st0" d="M475.41,251.23h0s59.09-33.44,73.9-42.31c14.81-8.88,27.56-24.27,27.56-24.27,16.29,42.49,73.07-2.19,4.71-39.02-.12-.07-.24-.14-.36-.21h0c-25.37,43.95-61.87,80.44-105.81,105.81h0Z"/>
  <path class="st0" d="M186.32,251.23h0s-58.5-34.46-73.59-42.84c-15.09-8.38-34.8-11.74-34.8-11.74,28.65-35.36-38.43-62.19-36.15,15.44v.41h0c50.74,0,100.59,13.36,144.54,38.73h0Z"/>
  <path class="st0" d="M42.15.66h0s-.59,67.89-.3,85.16c.28,17.26,7.23,36,7.23,36-44.94-7.13-34.64,64.37,31.44,23.59.12-.07.24-.14.36-.21h0C55.5,101.26,42.15,51.41,42.15.66h0Z"/>
  <path class="st0" d="M725.4,106.89c25.37,43.95,38.73,93.8,38.73,144.54h0l-72.27-125.18,33.54-19.37h0Z"/>
  <path class="st0" d="M725.4,106.89c-25.37-43.95-61.87-80.44-105.81-105.81h0l72.27,125.18,33.54-19.37Z"/>
  <path class="st0" d="M908.67,1.08h0c-43.95,25.37-80.44,61.87-105.81,105.81l33.54,19.36h0l33.54,19.37c25.37-43.95,38.73-93.8,38.73-144.54h0Z"/>
  <path class="st0" d="M869.94,145.62l-33.54-19.37h0l-33.54-19.37c-25.37,43.95-38.73,93.8-38.73,144.54h0c43.95-25.37,80.44-61.87,105.81-105.81h0Z"/>
  <path class="st0" d="M908.67,212.71c-50.75,0-100.6,13.36-144.54,38.73h144.54v-38.73Z"/>
  <path class="st0" d="M619.59,1.08h0s58.5,34.46,73.59,42.84,34.8,11.74,34.8,11.74c-28.65,35.36,38.43,62.19,36.15-15.44v-.41h0c-50.74,0-100.59-13.36-144.54-38.73h0Z"/>
  <path class="st0" d="M1053.22,251.44c0-50.75-13.36-100.6-38.73-144.54l-33.54,19.37h0l-33.54,19.36c25.37,43.95,61.87,80.44,105.81,105.81h0Z"/>
  <path class="st0" d="M1014.48,106.89c-25.37-43.95-61.87-80.44-105.81-105.81h0c0,50.75,13.36,100.6,38.73,144.54l33.54-19.37h0l33.54-19.36h0Z"/>
  <path class="st0" d="M908.67,212.71c50.75,0,100.6,13.36,144.54,38.73h-144.54v-38.73Z"/>
  <path class="st0" d="M1091.95,106.89c25.37-43.95,61.87-80.44,105.81-105.81h0l-72.27,125.18-33.54-19.37Z"/>
  <path class="st0" d="M1091.95,106.89c-25.37,43.95-38.73,93.8-38.73,144.54h0l72.27-125.18-33.54-19.37h0Z"/>
  <path class="st0" d="M1159.02,145.62c25.37-43.95,38.73-93.8,38.73-144.54h0l-72.27,125.18,33.54,19.37h0Z"/>
  <path class="st0" d="M1159.02,145.62c-25.37,43.95-61.87,80.44-105.81,105.81h0l72.27-125.18,33.54,19.37Z"/>
  <path class="st0" d="M1053.21,251.43h0c43.95,25.37,93.8,38.73,144.54,38.73v-38.73h0v-38.73c-50.75,0-100.6,13.36-144.54,38.73h0Z"/>
  <path class="st0" d="M1159.02,357.25c25.37,43.95,38.73,93.8,38.73,144.54h0l-72.27-125.18,33.54-19.37h0Z"/>
  <path class="st0" d="M1159.02,357.25c-25.37-43.95-61.87-80.44-105.81-105.81h0l72.27,125.18,33.54-19.37Z"/>
  <path class="st0" d="M725.4,395.98c25.37-43.95,38.73-93.8,38.73-144.54h0l-72.27,125.18,33.54,19.37h0Z"/>
  <path class="st0" d="M725.4,395.98c-25.37,43.95-61.87,80.44-105.81,105.81h0l72.27-125.18,33.54,19.37Z"/>
  <path class="st0" d="M908.67,290.17c-50.75,0-100.6-13.36-144.54-38.73h144.54v38.73Z"/>
  <path class="st0" d="M908.67,501.79c0-50.75-13.36-100.6-38.73-144.54l-33.54,19.37h0l-33.54,19.36c25.37,43.95,61.87,80.44,105.81,105.81h0Z"/>
  <path class="st0" d="M869.94,357.25c-25.37-43.95-61.87-80.44-105.81-105.81h0c0,50.75,13.36,100.6,38.73,144.54l33.54-19.37h0l33.54-19.37h0Z"/>
  <path class="st0" d="M908.67,290.17c50.75,0,100.6-13.36,144.54-38.73h-144.54v38.73Z"/>
  <path class="st0" d="M1053.21,251.44h0c-43.95,25.37-80.44,61.87-105.81,105.81l33.54,19.36h0l33.54,19.37c25.37-43.95,38.73-93.8,38.73-144.54h0Z"/>
  <path class="st0" d="M1014.48,395.98l-33.54-19.37h0l-33.54-19.37c-25.37,43.95-38.73,93.8-38.73,144.54h0c43.95-25.37,80.44-61.87,105.81-105.81h0Z"/>
  <path class="st0" d="M1091.94,395.98c25.37,43.95,61.87,80.44,105.81,105.81h0l-72.27-125.18-33.54,19.37Z"/>
  <path class="st0" d="M1091.94,395.98c-25.37-43.95-38.73-93.8-38.73-144.54h0l72.27,125.18-33.54,19.37h0Z"/>
  <path class="st0" d="M658.31,145.63c25.37,43.95,61.87,80.44,105.81,105.81h0l-72.27-125.18-33.54,19.37Z"/>
  <path class="st0" d="M658.31,145.63c-25.37-43.95-38.73-93.8-38.73-144.54h0l72.27,125.18-33.54,19.37h0Z"/>
  <path class="st0" d="M764.13,251.44c-43.95-25.37-93.8-38.73-144.54-38.73v38.73h0v38.73c50.75,0,100.6-13.36,144.54-38.73h0Z"/>
  <path class="st0" d="M658.31,357.25c25.37-43.95,61.87-80.44,105.81-105.81h0l-72.27,125.18-33.54-19.37Z"/>
  <path class="st0" d="M658.31,357.25c-25.37,43.95-38.73,93.8-38.73,144.54h0l72.27-125.18-33.54-19.37h0Z"/>
  <path class="st0" d="M619.59,1.08c43.95,25.37,93.79,38.73,144.54,38.73V1.08"/>
  <path class="st0" d="M764.13,501.8h0v-38.74c-50.75,0-100.6,13.36-144.54,38.73h0"/>
  <path class="st0" d="M1053.21,501.8h0v-38.74c-50.75,0-100.6,13.36-144.54,38.73h0"/>
  <path class="st0" d="M1197.75,501.8h0c-43.95-25.37-93.8-38.73-144.54-38.73v38.73h0"/>
  <path class="st0" d="M764.13,1.08v38.73c50.74,0,100.59-13.36,144.54-38.73"/>
  <path class="st0" d="M908.68,1.08c43.95,25.37,93.79,38.73,144.54,38.73V1.08"/>
  <path class="st0" d="M1053.22,1.08v38.73c50.74,0,100.59-13.36,144.54-38.73"/>
  <path class="st0" d="M908.66,501.8h0c-43.95-25.37-93.8-38.73-144.54-38.73v38.73h0"/>
  <path class="st0" d="M763.77,251.64h0s.59-67.89.3-85.16c-.28-17.26-7.23-36-7.23-36,44.94,7.13,34.64-64.37-31.44-23.59l-.36.21h0c25.37,43.95,38.73,93.8,38.73,144.54h0Z"/>
  <path class="st0" d="M909.03,1.29h0s-59.09,33.44-73.9,42.31c-14.81,8.88-27.56,24.27-27.56,24.27-16.29-42.49-73.07,2.19-4.71,39.02l.36.21h0c25.37-43.95,61.87-80.44,105.81-105.81h0Z"/>
  <path class="st0" d="M1052.85,251.65h0s-58.5-34.46-73.59-42.84-34.8-11.74-34.8-11.74c28.65-35.36-38.43-62.19-36.15,15.44v.41h0c50.74,0,100.59,13.36,144.54,38.73h0Z"/>
  <path class="st0" d="M908.67,1.08h0s-.59,67.89-.3,85.16c.28,17.26,7.23,36,7.23,36-44.94-7.13-34.64,64.37,31.44,23.59.12-.07.24-.14.36-.21h0c-25.37-43.95-38.73-93.8-38.73-144.54h0Z"/>
  <path class="st0" d="M763.41,251.43h0s59.09-33.44,73.9-42.31c14.81-8.88,27.56-24.27,27.56-24.27,16.29,42.49,73.07-2.19,4.71-39.02-.12-.07-.24-.14-.36-.21h0c-25.37,43.95-61.87,80.44-105.81,105.81h0Z"/>
  <path class="st0" d="M908.67,1.08h0s58.5,34.46,73.59,42.84c15.09,8.38,34.8,11.74,34.8,11.74-28.65,35.36,38.43,62.19,36.15-15.44v-.41h0c-50.74,0-100.59-13.36-144.54-38.73h0Z"/>
  <path class="st0" d="M1052.85,251.65h0s.59-67.89.3-85.16c-.28-17.26-7.23-36-7.23-36,44.94,7.13,34.64-64.37-31.44-23.59l-.36.21h0c25.37,43.95,38.73,93.8,38.73,144.54h0Z"/>
  <path class="st0" d="M1198.11,1.3h0s-59.09,33.44-73.9,42.31c-14.81,8.88-27.56,24.27-27.56,24.27-16.29-42.49-73.07,2.19-4.71,39.02l.36.21h0c25.37-43.95,61.87-80.44,105.81-105.81h0Z"/>
  <path class="st0" d="M764.13,251.44h0s58.5,34.46,73.59,42.84,34.8,11.74,34.8,11.74c-28.65,35.36,38.43,62.19,36.15-15.44v-.41h0c-50.74,0-100.59-13.36-144.54-38.73h0Z"/>
  <path class="st0" d="M908.31,502.01h0s.59-67.89.3-85.16c-.28-17.26-7.23-36-7.23-36,44.94,7.13,34.64-64.37-31.44-23.59-.12.07-.24.14-.36.21h0c25.37,43.95,38.73,93.8,38.73,144.54h0Z"/>
  <path class="st0" d="M1053.57,251.65h0s-59.09,33.44-73.9,42.31c-14.81,8.88-27.56,24.27-27.56,24.27-16.29-42.49-73.07,2.19-4.71,39.02.12.07.24.14.36.21h0c25.37-43.95,61.87-80.44,105.81-105.81h0Z"/>
  <path class="st0" d="M764.13,251.44h0s-59.09,33.44-73.9,42.31c-14.81,8.88-27.56,24.27-27.56,24.27-16.29-42.49-73.07,2.19-4.71,39.02.12.07.24.14.36.21h0c25.37-43.95,61.87-80.44,105.81-105.81h0Z"/>
  <path class="st0" d="M1053.21,251.44h0s58.5,34.46,73.59,42.84,34.8,11.74,34.8,11.74c-28.65,35.36,38.43,62.19,36.15-15.44v-.41h0c-50.74,0-100.59-13.36-144.54-38.73h0Z"/>
  <path class="st0" d="M908.31,502h0s-58.5-34.46-73.59-42.84c-15.09-8.38-34.8-11.74-34.8-11.74,28.65-35.36-38.43-62.19-36.15,15.44v.41h0c50.74,0,100.59,13.36,144.54,38.73h0Z"/>
  <path class="st0" d="M764.13,251.43h0s-.59,67.89-.3,85.16c.28,17.26,7.23,36,7.23,36-44.94-7.13-34.64,64.37,31.44,23.59.12-.07.24-.14.36-.21h0c-25.37-43.95-38.73-93.8-38.73-144.54h0Z"/>
  <path class="st0" d="M618.87,501.79h0s59.09-33.44,73.9-42.31c14.81-8.88,27.56-24.27,27.56-24.27,16.29,42.49,73.07-2.19,4.71-39.02-.12-.07-.24-.14-.36-.21h0c-25.37,43.95-61.87,80.44-105.81,105.81h0Z"/>
  <path class="st0" d="M1197.39,502h0s-58.5-34.46-73.59-42.84-34.8-11.74-34.8-11.74c28.65-35.36-38.43-62.19-36.15,15.44v.41h0c50.74,0,100.59,13.36,144.54,38.73h0Z"/>
  <path class="st0" d="M1053.21,251.44h0s-.59,67.89-.3,85.16,7.23,36,7.23,36c-44.94-7.13-34.64,64.37,31.44,23.59.12-.07.24-.14.36-.21h0c-25.37-43.95-38.73-93.8-38.73-144.54h0Z"/>
  <path class="st0" d="M907.95,501.79h0s59.09-33.44,73.9-42.31c14.81-8.88,27.56-24.27,27.56-24.27,16.29,42.49,73.07-2.19,4.71-39.02-.12-.07-.24-.14-.36-.21h0c-25.37,43.95-61.87,80.44-105.81,105.81h0Z"/>
  <path class="st0" d="M1053.22,251.44h0s59.09-33.44,73.9-42.31c14.81-8.88,27.56-24.27,27.56-24.27,16.29,42.49,73.07-2.19,4.71-39.02-.12-.07-.24-.14-.36-.21h0c-25.37,43.95-61.87,80.44-105.81,105.81h0Z"/>
  <path class="st0" d="M764.13,251.44h0s-58.5-34.46-73.59-42.84c-15.09-8.38-34.8-11.74-34.8-11.74,28.65-35.36-38.43-62.19-36.15,15.44v.41h0c50.74,0,100.59,13.36,144.54,38.73h0Z"/>
  <path class="st0" d="M619.95.87h0s-.59,67.89-.3,85.16c.28,17.26,7.23,36,7.23,36-44.94-7.13-34.64,64.37,31.44,23.59.12-.07.24-.14.36-.21h0c-25.37-43.95-38.73-93.8-38.73-144.54h0Z"/>
  <path class="st0" d="M147.22,607.61c25.37,43.95,38.73,93.8,38.73,144.54h0l-72.27-125.18,33.54-19.37h0Z"/>
  <path class="st0" d="M147.22,607.61c-25.37-43.95-61.87-80.44-105.81-105.81h0l72.27,125.18,33.54-19.37Z"/>
  <path class="st0" d="M330.5,501.79h0c-43.95,25.37-80.44,61.87-105.81,105.81l33.54,19.36h0l33.54,19.37c25.37-43.95,38.73-93.8,38.73-144.54h0Z"/>
  <path class="st0" d="M291.77,646.34l-33.54-19.37h0l-33.54-19.37c-25.37,43.95-38.73,93.8-38.73,144.54h0c43.95-25.37,80.44-61.87,105.81-105.81h0Z"/>
  <path class="st0" d="M330.5,713.42c-50.75,0-100.6,13.36-144.54,38.73h144.54v-38.73Z"/>
  <path class="st0" d="M41.41,501.79h0s58.5,34.46,73.59,42.84c15.09,8.38,34.8,11.74,34.8,11.74-28.65,35.36,38.43,62.19,36.15-15.44v-.41h0c-50.74,0-100.59-13.36-144.54-38.73h0Z"/>
  <path class="st0" d="M475.04,752.15c0-50.75-13.36-100.6-38.73-144.54l-33.54,19.37h0l-33.54,19.36c25.37,43.95,61.87,80.44,105.81,105.81h0Z"/>
  <path class="st0" d="M436.31,607.61c-25.37-43.95-61.87-80.44-105.81-105.81h0c0,50.75,13.36,100.6,38.73,144.54l33.54-19.37h0l33.54-19.36h0Z"/>
  <path class="st0" d="M330.5,713.42c50.75,0,100.6,13.36,144.54,38.73h-144.54v-38.73Z"/>
  <path class="st0" d="M513.77,607.61c25.37-43.95,61.87-80.44,105.81-105.81h0l-72.27,125.18-33.54-19.37h0Z"/>
  <path class="st0" d="M513.77,607.61c-25.37,43.95-38.73,93.8-38.73,144.54h0l72.27-125.18-33.54-19.37h0Z"/>
  <path class="st0" d="M580.85,646.33c25.37-43.95,38.73-93.8,38.73-144.54h0l-72.27,125.18,33.54,19.37h0Z"/>
  <path class="st0" d="M580.85,646.33c-25.37,43.95-61.87,80.44-105.81,105.81h0l72.27-125.18,33.54,19.37Z"/>
  <path class="st0" d="M475.04,752.15h0c43.95,25.37,93.8,38.73,144.54,38.73v-38.73h0v-38.73c-50.75,0-100.6,13.36-144.54,38.73Z"/>
  <path class="st0" d="M580.85,857.96c25.37,43.95,38.73,93.8,38.73,144.54h0l-72.27-125.18,33.54-19.37h0Z"/>
  <path class="st0" d="M580.85,857.96c-25.37-43.95-61.87-80.44-105.81-105.81h0l72.27,125.18,33.54-19.37Z"/>
  <path class="st0" d="M147.22,896.69c25.37-43.95,38.73-93.8,38.73-144.54h0l-72.27,125.18,33.54,19.37h0Z"/>
  <path class="st0" d="M147.22,896.69c-25.37,43.95-61.87,80.44-105.81,105.81h0l72.27-125.18,33.54,19.37Z"/>
  <path class="st0" d="M330.5,790.88c-50.75,0-100.6-13.36-144.54-38.73h144.54v38.73Z"/>
  <path class="st0" d="M330.5,1002.5c0-50.75-13.36-100.6-38.73-144.54l-33.54,19.37h0l-33.54,19.36c25.37,43.95,61.87,80.44,105.81,105.81h0Z"/>
  <path class="st0" d="M291.76,857.96c-25.37-43.95-61.87-80.44-105.81-105.81h0c0,50.75,13.36,100.6,38.73,144.54l33.54-19.37h0l33.54-19.37h0Z"/>
  <path class="st0" d="M330.5,790.88c50.75,0,100.6-13.36,144.54-38.73h-144.54v38.73Z"/>
  <path class="st0" d="M475.04,752.15h0c-43.95,25.37-80.44,61.87-105.81,105.81l33.54,19.36h0l33.54,19.37c25.37-43.95,38.73-93.8,38.73-144.54h0Z"/>
  <path class="st0" d="M436.31,896.69l-33.54-19.37h0l-33.54-19.37c-25.37,43.95-38.73,93.8-38.73,144.54h0c43.95-25.37,80.44-61.87,105.81-105.81h0Z"/>
  <path class="st0" d="M513.77,896.69c25.37,43.95,61.87,80.44,105.81,105.81h0l-72.27-125.18-33.54,19.37h0Z"/>
  <path class="st0" d="M513.77,896.69c-25.37-43.95-38.73-93.8-38.73-144.54h0l72.27,125.18-33.54,19.37h0Z"/>
  <path class="st0" d="M80.14,646.34c25.37,43.95,61.87,80.44,105.81,105.81h0l-72.27-125.18s-33.54,19.37-33.54,19.37Z"/>
  <path class="st0" d="M80.14,646.34c-25.37-43.95-38.73-93.8-38.73-144.54h0l72.27,125.18-33.54,19.37h0Z"/>
  <path class="st0" d="M185.95,752.15c-43.95-25.37-93.8-38.73-144.54-38.73v38.73h0v38.73c50.75,0,100.6-13.36,144.54-38.73h0Z"/>
  <path class="st0" d="M80.14,857.97c25.37-43.95,61.87-80.44,105.81-105.81h0l-72.27,125.18s-33.54-19.37-33.54-19.37Z"/>
  <path class="st0" d="M80.14,857.97c-25.37,43.95-38.73,93.8-38.73,144.54h0l72.27-125.18-33.54-19.37h0Z"/>
  <path class="st0" d="M41.42,501.8c43.95,25.37,93.79,38.73,144.54,38.73v-38.73"/>
  <path class="st0" d="M185.95,1002.51h0v-38.74c-50.75,0-100.6,13.36-144.54,38.73h0"/>
  <path class="st0" d="M475.04,1002.51h0v-38.74c-50.75,0-100.6,13.36-144.54,38.73h0"/>
  <path class="st0" d="M619.57,1002.51h0c-43.95-25.37-93.8-38.73-144.54-38.73v38.73h0"/>
  <path class="st0" d="M185.95,501.8v38.73c50.74,0,100.59-13.36,144.54-38.73"/>
  <path class="st0" d="M330.5,501.8c43.95,25.37,93.79,38.73,144.54,38.73v-38.73"/>
  <path class="st0" d="M475.04,501.8v38.73c50.74,0,100.59-13.36,144.54-38.73"/>
  <path class="st0" d="M330.49,1002.51h0c-43.95-25.37-93.8-38.73-144.54-38.73v38.73h0"/>
  <path class="st0" d="M185.59,752.35h0s.59-67.89.3-85.16c-.28-17.26-7.23-36-7.23-36,44.94,7.13,34.64-64.37-31.44-23.59-.12.07-.24.14-.36.21h0c25.37,43.95,38.73,93.8,38.73,144.54h0Z"/>
  <path class="st0" d="M330.85,502h0s-59.09,33.44-73.9,42.31c-14.81,8.88-27.56,24.27-27.56,24.27-16.29-42.49-73.07,2.19-4.71,39.02.12.07.24.14.36.21h0c25.37-43.95,61.87-80.44,105.81-105.81h0Z"/>
  <path class="st0" d="M474.67,752.36h0s-58.5-34.46-73.59-42.84-34.8-11.74-34.8-11.74c28.65-35.36-38.43-62.19-36.15,15.44v.41h0c50.74,0,100.59,13.36,144.54,38.73h0Z"/>
  <path class="st0" d="M330.5,501.79h0s-.59,67.89-.3,85.16c.28,17.26,7.23,36,7.23,36-44.94-7.13-34.64,64.37,31.44,23.59l.36-.21h0c-25.37-43.95-38.73-93.8-38.73-144.54h0Z"/>
  <path class="st0" d="M185.23,752.15h0s59.09-33.44,73.9-42.31c14.81-8.88,27.56-24.27,27.56-24.27,16.29,42.49,73.07-2.19,4.71-39.02-.12-.07-.24-.14-.36-.21h0c-25.37,43.95-61.87,80.44-105.81,105.81h0Z"/>
  <path class="st0" d="M330.5,501.79h0s58.5,34.46,73.59,42.84,34.8,11.74,34.8,11.74c-28.65,35.36,38.43,62.19,36.15-15.44v-.41h0c-50.74,0-100.59-13.36-144.54-38.73h0Z"/>
  <path class="st0" d="M474.67,752.36h0s.59-67.89.3-85.16c-.28-17.26-7.23-36-7.23-36,44.94,7.13,34.64-64.37-31.44-23.59l-.36.21h0c25.37,43.95,38.73,93.8,38.73,144.54h0Z"/>
  <path class="st0" d="M619.94,502.01h0s-59.09,33.44-73.9,42.31c-14.81,8.88-27.56,24.27-27.56,24.27-16.29-42.49-73.07,2.19-4.71,39.02l.36.21h0c25.37-43.95,61.87-80.44,105.81-105.81h0Z"/>
  <path class="st0" d="M185.95,752.15h0s58.5,34.46,73.59,42.84,34.8,11.74,34.8,11.74c-28.65,35.36,38.43,62.19,36.15-15.44v-.41h0c-50.74,0-100.59-13.36-144.54-38.73h0Z"/>
  <path class="st0" d="M330.13,1002.72h0s.59-67.89.3-85.16-7.23-36-7.23-36c44.94,7.13,34.64-64.37-31.44-23.59-.12.07-.24.14-.36.21h0c25.37,43.95,38.73,93.8,38.73,144.54h0Z"/>
  <path class="st0" d="M475.39,752.36h0s-59.09,33.44-73.9,42.31c-14.81,8.88-27.56,24.27-27.56,24.27-16.29-42.49-73.07,2.19-4.71,39.02l.36.21h0c25.37-43.95,61.87-80.44,105.81-105.81h0Z"/>
  <path class="st0" d="M185.95,752.15h0s-59.09,33.44-73.9,42.31c-14.81,8.88-27.56,24.27-27.56,24.27-16.29-42.49-73.07,2.19-4.71,39.02.12.07.24.14.36.21h0c25.37-43.95,61.87-80.44,105.81-105.81h0Z"/>
  <path class="st0" d="M475.04,752.15h0s58.5,34.46,73.59,42.84,34.8,11.74,34.8,11.74c-28.65,35.36,38.43,62.19,36.15-15.44v-.41h0c-50.74,0-100.59-13.36-144.54-38.73h0Z"/>
  <path class="st0" d="M619.22,1002.71h0s.59-67.89.3-85.16c-.28-17.26-7.23-36-7.23-36,44.94,7.13,34.64-64.37-31.44-23.59l-.36.21h0c25.37,43.95,38.73,93.8,38.73,144.54h0Z"/>
  <path class="st0" d="M330.13,1002.71h0s-58.5-34.46-73.59-42.84-34.8-11.74-34.8-11.74c28.65-35.36-38.43-62.19-36.15,15.44v.41h0c50.74,0,100.59,13.36,144.54,38.73h0Z"/>
  <path class="st0" d="M185.95,752.15h0s-.59,67.89-.3,85.16c.28,17.26,7.23,36,7.23,36-44.94-7.13-34.64,64.37,31.44,23.59.12-.07.24-.14.36-.21h0c-25.37-43.95-38.73-93.8-38.73-144.54h0Z"/>
  <path class="st0" d="M40.69,1002.5h0s59.09-33.44,73.9-42.31c14.81-8.88,27.56-24.27,27.56-24.27,16.29,42.49,73.07-2.19,4.71-39.02-.12-.07-.24-.14-.36-.21h0c-25.37,43.95-61.87,80.44-105.81,105.81h0Z"/>
  <path class="st0" d="M619.22,1002.72h0s-58.5-34.46-73.59-42.84-34.8-11.74-34.8-11.74c28.65-35.36-38.43-62.19-36.15,15.44v.41h0c50.74,0,100.59,13.36,144.54,38.73h0Z"/>
  <path class="st0" d="M475.04,752.15h0s-.59,67.89-.3,85.16c.28,17.26,7.23,36,7.23,36-44.94-7.13-34.64,64.37,31.44,23.59l.36-.21h0c-25.37-43.95-38.73-93.8-38.73-144.54h0Z"/>
  <path class="st0" d="M329.78,1002.5h0s59.09-33.44,73.9-42.31c14.81-8.88,27.56-24.27,27.56-24.27,16.29,42.49,73.07-2.19,4.71-39.02l-.36-.21h0c-25.37,43.95-61.87,80.44-105.81,105.81h0Z"/>
  <path class="st0" d="M475.04,752.15h0s59.09-33.44,73.9-42.31c14.81-8.88,27.56-24.27,27.56-24.27,16.29,42.49,73.07-2.19,4.71-39.02l-.36-.21h0c-25.37,43.95-61.87,80.44-105.81,105.81h0Z"/>
  <path class="st0" d="M185.96,752.15h0s-58.5-34.46-73.59-42.84c-15.09-8.38-34.8-11.74-34.8-11.74,28.65-35.36-38.43-62.19-36.15,15.44v.41h0c50.74,0,100.59,13.36,144.54,38.73h0Z"/>
  <path class="st0" d="M41.78,501.58h0s-.59,67.89-.3,85.16c.28,17.26,7.23,36,7.23,36-44.94-7.13-34.64,64.37,31.44,23.59.12-.07.24-.14.36-.21h0c-25.38-43.94-38.73-93.79-38.73-144.54h0Z"/>
  <path class="st0" d="M725.03,607.82c25.37,43.95,38.73,93.8,38.73,144.54h0l-72.27-125.18,33.54-19.37h0Z"/>
  <path class="st0" d="M725.03,607.82c-25.37-43.95-61.87-80.44-105.81-105.81h0l72.27,125.18,33.54-19.37Z"/>
  <path class="st0" d="M908.3,502h0c-43.95,25.37-80.44,61.87-105.81,105.81l33.54,19.36h0l33.54,19.37c25.37-43.95,38.73-93.8,38.73-144.54h0Z"/>
  <path class="st0" d="M869.57,646.54l-33.54-19.37h0l-33.54-19.37c-25.37,43.95-38.73,93.8-38.73,144.54h0c43.95-25.37,80.44-61.87,105.81-105.81h0Z"/>
  <path class="st0" d="M908.3,713.63c-50.75,0-100.6,13.36-144.54,38.73h144.54v-38.73Z"/>
  <path class="st0" d="M619.22,502h0s58.5,34.46,73.59,42.84,34.8,11.74,34.8,11.74c-28.65,35.36,38.43,62.19,36.15-15.44v-.41h0c-50.74,0-100.59-13.36-144.54-38.73h0Z"/>
  <path class="st0" d="M1052.85,752.36c0-50.75-13.36-100.6-38.73-144.54l-33.54,19.37h0l-33.54,19.36c25.37,43.95,61.87,80.44,105.81,105.81h0Z"/>
  <path class="st0" d="M1014.12,607.82c-25.37-43.95-61.87-80.44-105.81-105.81h0c0,50.75,13.36,100.6,38.73,144.54l33.54-19.37h0l33.54-19.36h0Z"/>
  <path class="st0" d="M908.3,713.63c50.75,0,100.6,13.36,144.54,38.73h-144.54v-38.73Z"/>
  <path class="st0" d="M1091.58,607.81c25.37-43.95,61.87-80.44,105.81-105.81h0l-72.27,125.18-33.54-19.37h0Z"/>
  <path class="st0" d="M1091.58,607.81c-25.37,43.95-38.73,93.8-38.73,144.54h0l72.27-125.18-33.54-19.37h0Z"/>
  <path class="st0" d="M1158.66,646.54c25.37-43.95,38.73-93.8,38.73-144.54h0l-72.27,125.18,33.54,19.37h0Z"/>
  <path class="st0" d="M1158.66,646.54c-25.37,43.95-61.87,80.44-105.81,105.81h0l72.27-125.18,33.54,19.37Z"/>
  <path class="st0" d="M1052.84,752.36h0c43.95,25.37,93.8,38.73,144.54,38.73v-38.73h0v-38.73c-50.75,0-100.6,13.36-144.54,38.73Z"/>
  <path class="st0" d="M1158.66,858.17c25.37,43.95,38.73,93.8,38.73,144.54h0l-72.27-125.18,33.54-19.37h0Z"/>
  <path class="st0" d="M1158.66,858.17c-25.37-43.95-61.87-80.44-105.81-105.81h0l72.27,125.18,33.54-19.37Z"/>
  <path class="st0" d="M725.03,896.9c25.37-43.95,38.73-93.8,38.73-144.54h0l-72.27,125.18,33.54,19.37h0Z"/>
  <path class="st0" d="M725.03,896.9c-25.37,43.95-61.87,80.44-105.81,105.81h0l72.27-125.18,33.54,19.37Z"/>
  <path class="st0" d="M908.3,791.09c-50.75,0-100.6-13.36-144.54-38.73h144.54v38.73Z"/>
  <path class="st0" d="M908.3,1002.71c0-50.75-13.36-100.6-38.73-144.54l-33.54,19.37h0l-33.54,19.36c25.37,43.95,61.87,80.44,105.81,105.81h0Z"/>
  <path class="st0" d="M869.57,858.17c-25.37-43.95-61.87-80.44-105.81-105.81h0c0,50.75,13.36,100.6,38.73,144.54l33.54-19.37h0l33.54-19.37h0Z"/>
  <path class="st0" d="M908.3,791.09c50.75,0,100.6-13.36,144.54-38.73h-144.54v38.73Z"/>
  <path class="st0" d="M1052.85,752.36h0c-43.95,25.37-80.44,61.87-105.81,105.81l33.54,19.36h0l33.54,19.37c25.37-43.95,38.73-93.8,38.73-144.54h0Z"/>
  <path class="st0" d="M1014.11,896.9l-33.54-19.37h0l-33.54-19.37c-25.37,43.95-38.73,93.8-38.73,144.54h0c43.95-25.37,80.44-61.87,105.81-105.81h0Z"/>
  <path class="st0" d="M1091.58,896.9c25.37,43.95,61.87,80.44,105.81,105.81h0l-72.27-125.18-33.54,19.37h0Z"/>
  <path class="st0" d="M1091.58,896.9c-25.37-43.95-38.73-93.8-38.73-144.54h0l72.27,125.18-33.54,19.37h0Z"/>
  <path class="st0" d="M657.95,646.55c25.37,43.95,61.87,80.44,105.81,105.81h0l-72.27-125.18-33.54,19.37Z"/>
  <path class="st0" d="M657.95,646.55c-25.37-43.95-38.73-93.8-38.73-144.54h0l72.27,125.18-33.54,19.37h0Z"/>
  <path class="st0" d="M763.76,752.36c-43.95-25.37-93.8-38.73-144.54-38.73v38.73h0v38.73c50.75,0,100.6-13.36,144.54-38.73h0Z"/>
  <path class="st0" d="M657.95,858.18c25.37-43.95,61.87-80.44,105.81-105.81h0l-72.27,125.18-33.54-19.37Z"/>
  <path class="st0" d="M657.95,858.18c-25.37,43.95-38.73,93.8-38.73,144.54h0l72.27-125.18-33.54-19.37h0Z"/>
  <path class="st0" d="M619.22,502.01c43.95,25.37,93.79,38.73,144.54,38.73v-38.73"/>
  <path class="st0" d="M763.76,1002.72h0v-38.74c-50.75,0-100.6,13.36-144.54,38.73h0"/>
  <path class="st0" d="M1052.85,1002.72h0v-38.74c-50.75,0-100.6,13.36-144.54,38.73h0"/>
  <path class="st0" d="M1197.38,1002.72h0c-43.95-25.37-93.8-38.73-144.54-38.73v38.73h0"/>
  <path class="st0" d="M763.76,502.01v38.73c50.74,0,100.59-13.36,144.54-38.73"/>
  <path class="st0" d="M908.31,502.01c43.95,25.37,93.79,38.73,144.54,38.73v-38.73"/>
  <path class="st0" d="M1052.85,502.01v38.73c50.74,0,100.59-13.36,144.54-38.73"/>
  <path class="st0" d="M908.29,1002.72h0c-43.95-25.37-93.8-38.73-144.54-38.73v38.73h0"/>
  <path class="st0" d="M763.4,752.56h0s.59-67.89.3-85.16c-.28-17.26-7.23-36-7.23-36,44.94,7.13,34.64-64.37-31.44-23.59l-.36.21h0c25.37,43.95,38.73,93.8,38.73,144.54h0Z"/>
  <path class="st0" d="M908.66,502.21h0s-59.09,33.44-73.9,42.31c-14.81,8.88-27.56,24.27-27.56,24.27-16.29-42.49-73.07,2.19-4.71,39.02l.36.21h0c25.37-43.95,61.87-80.44,105.81-105.81h0Z"/>
  <path class="st0" d="M1052.48,752.57h0s-58.5-34.46-73.59-42.84-34.8-11.74-34.8-11.74c28.65-35.36-38.43-62.19-36.15,15.44v.41h0c50.74,0,100.59,13.36,144.54,38.73h0Z"/>
  <path class="st0" d="M908.3,502h0s-.59,67.89-.3,85.16c.28,17.26,7.23,36,7.23,36-44.94-7.13-34.64,64.37,31.44,23.59l.36-.21h0c-25.37-43.95-38.73-93.8-38.73-144.54h0Z"/>
  <path class="st0" d="M763.04,752.35h0s59.09-33.44,73.9-42.31c14.81-8.88,27.56-24.27,27.56-24.27,16.29,42.49,73.07-2.19,4.71-39.02l-.36-.21h0c-25.37,43.95-61.87,80.44-105.81,105.81h0Z"/>
  <path class="st0" d="M908.3,502h0s58.5,34.46,73.59,42.84,34.8,11.74,34.8,11.74c-28.65,35.36,38.43,62.19,36.15-15.44v-.41h0c-50.74,0-100.59-13.36-144.54-38.73h0Z"/>
  <path class="st0" d="M1052.48,752.57h0s.59-67.89.3-85.16c-.28-17.26-7.23-36-7.23-36,44.94,7.13,34.64-64.37-31.44-23.59l-.36.21h0c25.37,43.95,38.73,93.8,38.73,144.54h0Z"/>
  <path class="st0" d="M1197.74,502.22h0s-59.09,33.44-73.9,42.31c-14.81,8.88-27.56,24.27-27.56,24.27-16.29-42.49-73.07,2.19-4.71,39.02l.36.21h0c25.37-43.95,61.87-80.44,105.81-105.81h0Z"/>
  <path class="st0" d="M763.76,752.36h0s58.5,34.46,73.59,42.84,34.8,11.74,34.8,11.74c-28.65,35.36,38.43,62.19,36.15-15.44v-.41h0c-50.74,0-100.59-13.36-144.54-38.73h0Z"/>
  <path class="st0" d="M907.94,1002.93h0s.59-67.89.3-85.16c-.28-17.26-7.23-36-7.23-36,44.94,7.13,34.64-64.37-31.44-23.59l-.36.21h0c25.37,43.95,38.73,93.8,38.73,144.54h0Z"/>
  <path class="st0" d="M1053.2,752.57h0s-59.09,33.44-73.9,42.31c-14.81,8.88-27.56,24.27-27.56,24.27-16.29-42.49-73.07,2.19-4.71,39.02l.36.21h0c25.37-43.95,61.87-80.44,105.81-105.81h0Z"/>
  <path class="st0" d="M763.76,752.36h0s-59.09,33.44-73.9,42.31c-14.81,8.88-27.56,24.27-27.56,24.27-16.29-42.49-73.07,2.19-4.71,39.02l.36.21h0c25.37-43.95,61.87-80.44,105.81-105.81h0Z"/>
  <path class="st0" d="M1052.84,752.36h0s58.5,34.46,73.59,42.84c15.09,8.38,34.8,11.74,34.8,11.74-28.65,35.36,38.43,62.19,36.15-15.44v-.41h0c-50.74,0-100.59-13.36-144.54-38.73h0Z"/>
  <path class="st0" d="M907.94,1002.92h0s-58.5-34.46-73.59-42.84c-15.09-8.38-34.8-11.74-34.8-11.74,28.65-35.36-38.43-62.19-36.15,15.44v.41h0c50.74,0,100.59,13.36,144.54,38.73h0Z"/>
  <path class="st0" d="M763.76,752.36h0s-.59,67.89-.3,85.16c.28,17.26,7.23,36,7.23,36-44.94-7.13-34.64,64.37,31.44,23.59l.36-.21h0c-25.37-43.95-38.73-93.8-38.73-144.54h0Z"/>
  <path class="st0" d="M618.5,1002.71h0s59.09-33.44,73.9-42.31c14.81-8.88,27.56-24.27,27.56-24.27,16.29,42.49,73.07-2.19,4.71-39.02l-.36-.21h0c-25.37,43.95-61.87,80.44-105.81,105.81h0Z"/>
  <path class="st0" d="M1197.02,1002.93h0s-58.5-34.46-73.59-42.84-34.8-11.74-34.8-11.74c28.65-35.36-38.43-62.19-36.15,15.44v.41h0c50.74,0,100.59,13.36,144.54,38.73h0Z"/>
  <path class="st0" d="M1052.85,752.36h0s-.59,67.89-.3,85.16c.28,17.26,7.23,36,7.23,36-44.94-7.13-34.64,64.37,31.44,23.59l.36-.21h0c-25.37-43.95-38.73-93.8-38.73-144.54h0Z"/>
  <path class="st0" d="M907.58,1002.71h0s59.09-33.44,73.9-42.31c14.81-8.88,27.56-24.27,27.56-24.27,16.29,42.49,73.07-2.19,4.71-39.02l-.36-.21h0c-25.37,43.95-61.87,80.44-105.81,105.81h0Z"/>
  <path class="st0" d="M1052.85,752.36h0s59.09-33.44,73.9-42.31c14.81-8.88,27.56-24.27,27.56-24.27,16.29,42.49,73.07-2.19,4.71-39.02l-.36-.21h0c-25.37,43.95-61.87,80.44-105.81,105.81h0Z"/>
  <path class="st0" d="M763.76,752.36h0s-58.5-34.46-73.59-42.84-34.8-11.74-34.8-11.74c28.65-35.36-38.43-62.19-36.15,15.44v.41h0c50.74,0,100.59,13.36,144.54,38.73h0Z"/>
  <path class="st0" d="M619.58,501.79h0s-.59,67.89-.3,85.16c.28,17.26,7.23,36,7.23,36-44.94-7.13-34.64,64.37,31.44,23.59l.36-.21h0c-25.37-43.95-38.73-93.8-38.73-144.54h0Z"/>
  <path class="st0" d="M146.14,1108.52c25.37,43.95,38.73,93.8,38.73,144.54h0l-72.27-125.18,33.54-19.37h0Z"/>
  <path class="st0" d="M146.14,1108.52c-25.37-43.95-61.87-80.44-105.81-105.81h0l72.27,125.18,33.54-19.37Z"/>
  <path class="st0" d="M329.41,1002.71h0c-43.95,25.37-80.44,61.87-105.81,105.81l33.54,19.36h0l33.54,19.37c25.37-43.95,38.73-93.8,38.73-144.54h0Z"/>
  <path class="st0" d="M290.68,1147.25l-33.54-19.37h0l-33.54-19.37c-25.37,43.95-38.73,93.8-38.73,144.54h0c43.95-25.37,80.44-61.87,105.81-105.81h0Z"/>
  <path class="st0" d="M329.41,1214.33c-50.75,0-100.6,13.36-144.54,38.73h144.54v-38.73Z"/>
  <path class="st0" d="M40.33,1002.7h0s58.5,34.46,73.59,42.84c15.09,8.38,34.8,11.74,34.8,11.74-28.65,35.36,38.43,62.19,36.15-15.44v-.41h0c-50.74,0-100.59-13.36-144.54-38.73h0Z"/>
  <path class="st0" d="M473.95,1253.06c0-50.75-13.36-100.6-38.73-144.54l-33.54,19.37h0l-33.54,19.36c25.37,43.95,61.87,80.44,105.81,105.81h0Z"/>
  <path class="st0" d="M435.22,1108.52c-25.37-43.95-61.87-80.44-105.81-105.81h0c0,50.75,13.36,100.6,38.73,144.54l33.54-19.37h0l33.54-19.36h0Z"/>
  <path class="st0" d="M329.41,1214.33c50.75,0,100.6,13.36,144.54,38.73h-144.54v-38.73h0Z"/>
  <path class="st0" d="M512.68,1108.52c25.37-43.95,61.87-80.44,105.81-105.81h0l-72.27,125.18-33.54-19.37Z"/>
  <path class="st0" d="M512.68,1108.52c-25.37,43.95-38.73,93.8-38.73,144.54h0l72.27-125.18-33.54-19.37h0Z"/>
  <path class="st0" d="M579.76,1147.25c25.37-43.95,38.73-93.8,38.73-144.54h0l-72.27,125.18,33.54,19.37h0Z"/>
  <path class="st0" d="M579.76,1147.25c-25.37,43.95-61.87,80.44-105.81,105.81h0l72.27-125.18,33.54,19.37h0Z"/>
  <path class="st0" d="M473.95,1253.06h0c43.95,25.37,93.8,38.73,144.54,38.73v-38.73h0v-38.73c-50.75,0-100.6,13.36-144.54,38.73h0Z"/>
  <path class="st0" d="M579.76,1358.87c25.37,43.95,38.73,93.8,38.73,144.54h0l-72.27-125.18,33.54-19.37h0Z"/>
  <path class="st0" d="M579.76,1358.87c-25.37-43.95-61.87-80.44-105.81-105.81h0l72.27,125.18,33.54-19.37Z"/>
  <path class="st0" d="M146.14,1397.61c25.37-43.95,38.73-93.8,38.73-144.54h0l-72.27,125.18,33.54,19.37h0Z"/>
  <path class="st0" d="M146.14,1397.61c-25.37,43.95-61.87,80.44-105.81,105.81h0l72.27-125.18,33.54,19.37h0Z"/>
  <path class="st0" d="M329.41,1291.79c-50.75,0-100.6-13.36-144.54-38.73h144.54v38.73Z"/>
  <path class="st0" d="M329.41,1503.42c0-50.75-13.36-100.6-38.73-144.54l-33.54,19.37h0l-33.54,19.36c25.37,43.95,61.87,80.44,105.81,105.81h0Z"/>
  <path class="st0" d="M290.68,1358.88c-25.37-43.95-61.87-80.44-105.81-105.81h0c0,50.75,13.36,100.6,38.73,144.54l33.54-19.37h0l33.54-19.37h0Z"/>
  <path class="st0" d="M329.41,1291.79c50.75,0,100.6-13.36,144.54-38.73h-144.54v38.73h0Z"/>
  <path class="st0" d="M473.95,1253.06h0c-43.95,25.37-80.44,61.87-105.81,105.81l33.54,19.36h0l33.54,19.37c25.37-43.95,38.73-93.8,38.73-144.54h0Z"/>
  <path class="st0" d="M435.22,1397.61l-33.54-19.37h0l-33.54-19.37c-25.37,43.95-38.73,93.8-38.73,144.54h0c43.95-25.37,80.44-61.87,105.81-105.81h0Z"/>
  <path class="st0" d="M512.68,1397.61c25.37,43.95,61.87,80.44,105.81,105.81h0l-72.27-125.18-33.54,19.37h0Z"/>
  <path class="st0" d="M512.68,1397.61c-25.37-43.95-38.73-93.8-38.73-144.54h0l72.27,125.18-33.54,19.37h0Z"/>
  <path class="st0" d="M79.05,1147.26c25.37,43.95,61.87,80.44,105.81,105.81h0l-72.27-125.18-33.54,19.37h0Z"/>
  <path class="st0" d="M79.05,1147.26c-25.37-43.95-38.73-93.8-38.73-144.54h0l72.27,125.18-33.54,19.37h0Z"/>
  <path class="st0" d="M184.87,1253.07c-43.95-25.37-93.8-38.73-144.54-38.73v38.73h0v38.73c50.75,0,100.6-13.36,144.54-38.73h0Z"/>
  <path class="st0" d="M79.05,1358.88c25.37-43.95,61.87-80.44,105.81-105.81h0l-72.27,125.18s-33.54-19.37-33.54-19.37Z"/>
  <path class="st0" d="M79.05,1358.88c-25.37,43.95-38.73,93.8-38.73,144.54h0l72.27-125.18-33.54-19.37h0Z"/>
  <path class="st0" d="M40.33,1002.71c43.95,25.37,93.79,38.73,144.54,38.73v-38.73"/>
  <path class="st0" d="M184.87,1503.43h0v-38.74c-50.75,0-100.6,13.36-144.54,38.73h0"/>
  <path class="st0" d="M473.95,1503.43h0v-38.74c-50.75,0-100.6,13.36-144.54,38.73h0"/>
  <path class="st0" d="M618.49,1503.43h0c-43.95-25.37-93.8-38.73-144.54-38.73v38.73h0"/>
  <path class="st0" d="M184.87,1002.71v38.73c50.74,0,100.59-13.36,144.54-38.73"/>
  <path class="st0" d="M329.42,1002.71c43.95,25.37,93.79,38.73,144.54,38.73v-38.73"/>
  <path class="st0" d="M473.95,1002.71v38.73c50.74,0,100.59-13.36,144.54-38.73"/>
  <path class="st0" d="M329.4,1503.43h0c-43.95-25.37-93.8-38.73-144.54-38.73v38.73h0"/>
  <path class="st0" d="M184.51,1253.27h0s.59-67.89.3-85.16c-.28-17.26-7.23-36-7.23-36,44.94,7.13,34.64-64.37-31.44-23.59-.12.07-.24.14-.36.21h0c25.37,43.95,38.73,93.8,38.73,144.54h0Z"/>
  <path class="st0" d="M329.77,1002.92h0s-59.09,33.44-73.9,42.31c-14.81,8.88-27.56,24.27-27.56,24.27-16.29-42.49-73.07,2.19-4.71,39.02.12.07.24.14.36.21h0c25.37-43.95,61.87-80.44,105.81-105.81h0Z"/>
  <path class="st0" d="M473.59,1253.28h0s-58.5-34.46-73.59-42.84-34.8-11.74-34.8-11.74c28.65-35.36-38.43-62.19-36.15,15.44v.41h0c50.74,0,100.59,13.36,144.54,38.73h0Z"/>
  <path class="st0" d="M329.41,1002.71h0s-.59,67.89-.3,85.16c.28,17.26,7.23,36,7.23,36-44.94-7.13-34.64,64.37,31.44,23.59.12-.07.24-.14.36-.21h0c-25.37-43.95-38.73-93.8-38.73-144.54h0Z"/>
  <path class="st0" d="M184.15,1253.06h0s59.09-33.44,73.9-42.31c14.81-8.88,27.56-24.27,27.56-24.27,16.29,42.49,73.07-2.19,4.71-39.02-.12-.07-.24-.14-.36-.21h0c-25.37,43.95-61.87,80.44-105.81,105.81h0Z"/>
  <path class="st0" d="M329.41,1002.71h0s58.5,34.46,73.59,42.84,34.8,11.74,34.8,11.74c-28.65,35.36,38.43,62.19,36.15-15.44v-.41h0c-50.74,0-100.59-13.36-144.54-38.73h0Z"/>
  <path class="st0" d="M473.59,1253.28h0s.59-67.89.3-85.16c-.28-17.26-7.23-36-7.23-36,44.94,7.13,34.64-64.37-31.44-23.59-.12.07-.24.14-.36.21h0c25.37,43.95,38.73,93.8,38.73,144.54h0Z"/>
  <path class="st0" d="M618.85,1002.92h0s-59.09,33.44-73.9,42.31c-14.81,8.88-27.56,24.27-27.56,24.27-16.29-42.49-73.07,2.19-4.71,39.02.12.07.24.14.36.21h0c25.37-43.95,61.87-80.44,105.81-105.81h0Z"/>
  <path class="st0" d="M184.87,1253.07h0s58.5,34.46,73.59,42.84,34.8,11.74,34.8,11.74c-28.65,35.36,38.43,62.19,36.15-15.44v-.41h0c-50.74,0-100.59-13.36-144.54-38.73h0Z"/>
  <path class="st0" d="M329.04,1503.63h0s.59-67.89.3-85.16-7.23-36-7.23-36c44.94,7.13,34.64-64.37-31.44-23.59-.12.07-.24.14-.36.21h0c25.37,43.95,38.73,93.8,38.73,144.54h0Z"/>
  <path class="st0" d="M474.31,1253.28h0s-59.09,33.44-73.9,42.31c-14.81,8.88-27.56,24.27-27.56,24.27-16.29-42.49-73.07,2.19-4.71,39.02.12.07.24.14.36.21h0c25.37-43.95,61.87-80.44,105.81-105.81h0Z"/>
  <path class="st0" d="M184.87,1253.06h0s-59.09,33.44-73.9,42.31c-14.81,8.88-27.56,24.27-27.56,24.27-16.29-42.49-73.07,2.19-4.71,39.02.12.07.24.14.36.21h0c25.37-43.95,61.87-80.44,105.81-105.81h0Z"/>
  <path class="st0" d="M473.95,1253.06h0s58.5,34.46,73.59,42.84c15.09,8.38,34.8,11.74,34.8,11.74-28.65,35.36,38.43,62.19,36.15-15.44v-.41h0c-50.74,0-100.59-13.36-144.54-38.73h0Z"/>
  <path class="st0" d="M618.13,1503.63h0s.59-67.89.3-85.16c-.28-17.26-7.23-36-7.23-36,44.94,7.13,34.64-64.37-31.44-23.59-.12.07-.24.14-.36.21h0c25.37,43.95,38.73,93.8,38.73,144.54h0Z"/>
  <path class="st0" d="M329.05,1503.63h0s-58.5-34.46-73.59-42.84-34.8-11.74-34.8-11.74c28.65-35.36-38.43-62.19-36.15,15.44v.41h0c50.74,0,100.59,13.36,144.54,38.73h0Z"/>
  <path class="st0" d="M184.87,1253.06h0s-.59,67.89-.3,85.16c.28,17.26,7.23,36,7.23,36-44.94-7.13-34.64,64.37,31.44,23.59.12-.07.24-.14.36-.21h0c-25.37-43.95-38.73-93.8-38.73-144.54h0Z"/>
  <path class="st0" d="M39.61,1503.41h0s59.09-33.44,73.9-42.31c14.81-8.88,27.56-24.27,27.56-24.27,16.29,42.49,73.07-2.19,4.71-39.02-.12-.07-.24-.14-.36-.21h0c-25.37,43.95-61.87,80.44-105.81,105.81h0Z"/>
  <path class="st0" d="M618.13,1503.63h0s-58.5-34.46-73.59-42.84-34.8-11.74-34.8-11.74c28.65-35.36-38.43-62.19-36.15,15.44v.41h0c50.74,0,100.59,13.36,144.54,38.73h0Z"/>
  <path class="st0" d="M473.95,1253.06h0s-.59,67.89-.3,85.16c.28,17.26,7.23,36,7.23,36-44.94-7.13-34.64,64.37,31.44,23.59.12-.07.24-.14.36-.21h0c-25.37-43.95-38.73-93.8-38.73-144.54h0Z"/>
  <path class="st0" d="M328.69,1503.42h0s59.09-33.44,73.9-42.31c14.81-8.88,27.56-24.27,27.56-24.27,16.29,42.49,73.07-2.19,4.71-39.02-.12-.07-.24-.14-.36-.21h0c-25.37,43.95-61.87,80.44-105.81,105.81h0Z"/>
  <path class="st0" d="M473.95,1253.06h0s59.09-33.44,73.9-42.31c14.81-8.88,27.56-24.27,27.56-24.27,16.29,42.49,73.07-2.19,4.71-39.02-.12-.07-.24-.14-.36-.21h0c-25.37,43.95-61.87,80.44-105.81,105.81h0Z"/>
  <path class="st0" d="M184.87,1253.07h0s-58.5-34.46-73.59-42.84c-15.09-8.38-34.8-11.74-34.8-11.74,28.65-35.36-38.43-62.19-36.15,15.44v.41h0c50.74,0,100.59,13.36,144.54,38.73h0Z"/>
  <path class="st0" d="M40.69,1002.5h0s-.59,67.89-.3,85.16c.28,17.26,7.23,36,7.23,36-44.94-7.13-34.64,64.37,31.44,23.59.12-.07.24-.14.36-.21h0c-25.37-43.95-38.73-93.8-38.73-144.54h0Z"/>
  <path class="st0" d="M723.94,1108.73c25.37,43.95,38.73,93.8,38.73,144.54h0l-72.27-125.18,33.54-19.37h0Z"/>
  <path class="st0" d="M723.94,1108.73c-25.37-43.95-61.87-80.44-105.81-105.81h0l72.27,125.18,33.54-19.37Z"/>
  <path class="st0" d="M907.22,1002.92h0c-43.95,25.37-80.44,61.87-105.81,105.81l33.54,19.36h0l33.54,19.37c25.37-43.95,38.73-93.8,38.73-144.54h0Z"/>
  <path class="st0" d="M868.49,1147.46l-33.54-19.37h0l-33.54-19.37c-25.37,43.95-38.73,93.8-38.73,144.54h0c43.95-25.37,80.44-61.87,105.81-105.81h0Z"/>
  <path class="st0" d="M907.22,1214.54c-50.75,0-100.6,13.36-144.54,38.73h144.54v-38.73Z"/>
  <path class="st0" d="M618.13,1002.91h0s58.5,34.46,73.59,42.84,34.8,11.74,34.8,11.74c-28.65,35.36,38.43,62.19,36.15-15.44v-.41h0c-50.74,0-100.59-13.36-144.54-38.73h0Z"/>
  <path class="st0" d="M1051.76,1253.27c0-50.75-13.36-100.6-38.73-144.54l-33.54,19.37h0l-33.54,19.36c25.37,43.95,61.87,80.44,105.81,105.81h0Z"/>
  <path class="st0" d="M1013.03,1108.73c-25.37-43.95-61.87-80.44-105.81-105.81h0c0,50.75,13.36,100.6,38.73,144.54l33.54-19.37h0l33.54-19.36h0Z"/>
  <path class="st0" d="M907.22,1214.54c50.75,0,100.6,13.36,144.54,38.73h-144.54v-38.73Z"/>
  <path class="st0" d="M1090.49,1108.73c25.37-43.95,61.87-80.44,105.81-105.81h0l-72.27,125.18-33.54-19.37Z"/>
  <path class="st0" d="M1090.49,1108.73c-25.37,43.95-38.73,93.8-38.73,144.54h0l72.27-125.18-33.54-19.37h0Z"/>
  <path class="st0" d="M1157.57,1147.46c25.37-43.95,38.73-93.8,38.73-144.54h0l-72.27,125.18,33.54,19.37h0Z"/>
  <path class="st0" d="M1157.57,1147.46c-25.37,43.95-61.87,80.44-105.81,105.81h0l72.27-125.18,33.54,19.37Z"/>
  <path class="st0" d="M1051.76,1253.27h0c43.95,25.37,93.8,38.73,144.54,38.73v-38.73h0v-38.73c-50.75,0-100.6,13.36-144.54,38.73Z"/>
  <path class="st0" d="M1157.57,1359.08c25.37,43.95,38.73,93.8,38.73,144.54h0l-72.27-125.18,33.54-19.37h0Z"/>
  <path class="st0" d="M1157.57,1359.08c-25.37-43.95-61.87-80.44-105.81-105.81h0l72.27,125.18,33.54-19.37h0Z"/>
  <path class="st0" d="M723.94,1397.82c25.37-43.95,38.73-93.8,38.73-144.54h0l-72.27,125.18,33.54,19.37h0Z"/>
  <path class="st0" d="M723.94,1397.82c-25.37,43.95-61.87,80.44-105.81,105.81h0l72.27-125.18,33.54,19.37h0Z"/>
  <path class="st0" d="M907.22,1292c-50.75,0-100.6-13.36-144.54-38.73h144.54v38.73Z"/>
  <path class="st0" d="M907.22,1503.63c0-50.75-13.36-100.6-38.73-144.54l-33.54,19.37h0l-33.54,19.36c25.37,43.95,61.87,80.44,105.81,105.81h0Z"/>
  <path class="st0" d="M868.49,1359.09c-25.37-43.95-61.87-80.44-105.81-105.81h0c0,50.75,13.36,100.6,38.73,144.54l33.54-19.37h0l33.54-19.37h0Z"/>
  <path class="st0" d="M907.22,1292c50.75,0,100.6-13.36,144.54-38.73h-144.54v38.73Z"/>
  <path class="st0" d="M1051.76,1253.27h0c-43.95,25.37-80.44,61.87-105.81,105.81l33.54,19.36h0l33.54,19.37c25.37-43.95,38.73-93.8,38.73-144.54h0Z"/>
  <path class="st0" d="M1013.03,1397.82l-33.54-19.37h0l-33.54-19.37c-25.37,43.95-38.73,93.8-38.73,144.54h0c43.95-25.37,80.44-61.87,105.81-105.81h0Z"/>
  <path class="st0" d="M1090.49,1397.82c25.37,43.95,61.87,80.44,105.81,105.81h0l-72.27-125.18-33.54,19.37h0Z"/>
  <path class="st0" d="M1090.49,1397.82c-25.37-43.95-38.73-93.8-38.73-144.54h0l72.27,125.18-33.54,19.37h0Z"/>
  <path class="st0" d="M656.86,1147.46c25.37,43.95,61.87,80.44,105.81,105.81h0l-72.27-125.18-33.54,19.37Z"/>
  <path class="st0" d="M656.86,1147.46c-25.37-43.95-38.73-93.8-38.73-144.54h0l72.27,125.18-33.54,19.37h0Z"/>
  <path class="st0" d="M762.67,1253.28c-43.95-25.37-93.8-38.73-144.54-38.73v38.73h0v38.73c50.75,0,100.6-13.36,144.54-38.73h0Z"/>
  <path class="st0" d="M656.86,1359.09c25.37-43.95,61.87-80.44,105.81-105.81h0l-72.27,125.18-33.54-19.37h0Z"/>
  <path class="st0" d="M656.86,1359.09c-25.37,43.95-38.73,93.8-38.73,144.54h0l72.27-125.18-33.54-19.37h0Z"/>
  <path class="st0" d="M618.14,1002.92c43.95,25.37,93.79,38.73,144.54,38.73v-38.73"/>
  <path class="st0" d="M762.67,1503.63h0v-38.74c-50.75,0-100.6,13.36-144.54,38.73h0"/>
  <path class="st0" d="M1051.76,1503.63h0v-38.74c-50.75,0-100.6,13.36-144.54,38.73h0"/>
  <path class="st0" d="M1196.29,1503.63h0c-43.95-25.37-93.8-38.73-144.54-38.73v38.73h0"/>
  <path class="st0" d="M762.67,1002.92v38.73c50.74,0,100.59-13.36,144.54-38.73"/>
  <path class="st0" d="M907.22,1002.92c43.95,25.37,93.79,38.73,144.54,38.73v-38.73"/>
  <path class="st0" d="M1051.76,1002.92v38.73c50.74,0,100.59-13.36,144.54-38.73"/>
  <path class="st0" d="M907.21,1503.64h0c-43.95-25.37-93.8-38.73-144.54-38.73v38.73h0"/>
  <path class="st0" d="M762.31,1253.48h0s.59-67.89.3-85.16c-.28-17.26-7.23-36-7.23-36,44.94,7.13,34.64-64.37-31.44-23.59-.12.07-.24.14-.36.21h0c25.37,43.95,38.73,93.8,38.73,144.54h0Z"/>
  <path class="st0" d="M907.57,1003.13h0s-59.09,33.44-73.9,42.31c-14.81,8.88-27.56,24.27-27.56,24.27-16.29-42.49-73.07,2.19-4.71,39.02.12.07.24.14.36.21h0c25.37-43.95,61.87-80.44,105.81-105.81h0Z"/>
  <path class="st0" d="M1051.39,1253.48h0s-58.5-34.46-73.59-42.84-34.8-11.74-34.8-11.74c28.65-35.36-38.43-62.19-36.15,15.44v.41h0c50.74,0,100.59,13.36,144.54,38.73h0Z"/>
  <path class="st0" d="M907.22,1002.92h0s-.59,67.89-.3,85.16c.28,17.26,7.23,36,7.23,36-44.94-7.13-34.64,64.37,31.44,23.59.12-.07.24-.14.36-.21h0c-25.37-43.95-38.73-93.8-38.73-144.54h0Z"/>
  <path class="st0" d="M761.95,1253.27h0s59.09-33.44,73.9-42.31c14.81-8.88,27.56-24.27,27.56-24.27,16.29,42.49,73.07-2.19,4.71-39.02-.12-.07-.24-.14-.36-.21h0c-25.37,43.95-61.87,80.44-105.81,105.81h0Z"/>
  <path class="st0" d="M907.22,1002.92h0s58.5,34.46,73.59,42.84,34.8,11.74,34.8,11.74c-28.65,35.36,38.43,62.19,36.15-15.44v-.41h0c-50.74,0-100.59-13.36-144.54-38.73h0Z"/>
  <path class="st0" d="M1051.4,1253.49h0s.59-67.89.3-85.16c-.28-17.26-7.23-36-7.23-36,44.94,7.13,34.64-64.37-31.44-23.59-.12.07-.24.14-.36.21h0c25.37,43.95,38.73,93.8,38.73,144.54h0Z"/>
  <path class="st0" d="M1196.66,1003.13h0s-59.09,33.44-73.9,42.31c-14.81,8.88-27.56,24.27-27.56,24.27-16.29-42.49-73.07,2.19-4.71,39.02.12.07.24.14.36.21h0c25.37-43.95,61.87-80.44,105.81-105.81h0Z"/>
  <path class="st0" d="M762.67,1253.27h0s58.5,34.46,73.59,42.84c15.09,8.38,34.8,11.74,34.8,11.74-28.65,35.36,38.43,62.19,36.15-15.44v-.41h0c-50.74,0-100.59-13.36-144.54-38.73h0Z"/>
  <path class="st0" d="M906.85,1503.84h0s.59-67.89.3-85.16c-.28-17.26-7.23-36-7.23-36,44.94,7.13,34.64-64.37-31.44-23.59-.12.07-.24.14-.36.21h0c25.37,43.95,38.73,93.8,38.73,144.54h0Z"/>
  <path class="st0" d="M1052.11,1253.49h0s-59.09,33.44-73.9,42.31-27.56,24.27-27.56,24.27c-16.29-42.49-73.07,2.19-4.71,39.02.12.07.24.14.36.21h0c25.37-43.95,61.87-80.44,105.81-105.81h0Z"/>
  <path class="st0" d="M762.67,1253.27h0s-59.09,33.44-73.9,42.31c-14.81,8.88-27.56,24.27-27.56,24.27-16.29-42.49-73.07,2.19-4.71,39.02.12.07.24.14.36.21h0c25.37-43.95,61.87-80.44,105.81-105.81h0Z"/>
  <path class="st0" d="M1051.76,1253.27h0s58.5,34.46,73.59,42.84,34.8,11.74,34.8,11.74c-28.65,35.36,38.43,62.19,36.15-15.44v-.41h0c-50.74,0-100.59-13.36-144.54-38.73h0Z"/>
  <path class="st0" d="M906.85,1503.84h0s-58.5-34.46-73.59-42.84-34.8-11.74-34.8-11.74c28.65-35.36-38.43-62.19-36.15,15.44v.41h0c50.74,0,100.59,13.36,144.54,38.73h0Z"/>
  <path class="st0" d="M762.67,1253.27h0s-.59,67.89-.3,85.16c.28,17.26,7.23,36,7.23,36-44.94-7.13-34.64,64.37,31.44,23.59.12-.07.24-.14.36-.21h0c-25.37-43.95-38.73-93.8-38.73-144.54h0Z"/>
  <path class="st0" d="M617.41,1503.62h0s59.09-33.44,73.9-42.31c14.81-8.88,27.56-24.27,27.56-24.27,16.29,42.49,73.07-2.19,4.71-39.02-.12-.07-.24-.14-.36-.21h0c-25.37,43.95-61.87,80.44-105.81,105.81h0Z"/>
  <path class="st0" d="M1195.94,1503.84h0s-58.5-34.46-73.59-42.84-34.8-11.74-34.8-11.74c28.65-35.36-38.43-62.19-36.15,15.44v.41h0c50.74,0,100.59,13.36,144.54,38.73h0Z"/>
  <path class="st0" d="M1051.76,1253.27h0s-.59,67.89-.3,85.16c.28,17.26,7.23,36,7.23,36-44.94-7.13-34.64,64.37,31.44,23.59.12-.07.24-.14.36-.21h0c-25.37-43.95-38.73-93.8-38.73-144.54h0Z"/>
  <path class="st0" d="M906.5,1503.63h0s59.09-33.44,73.9-42.31c14.81-8.88,27.56-24.27,27.56-24.27,16.29,42.49,73.07-2.19,4.71-39.02-.12-.07-.24-.14-.36-.21h0c-25.37,43.95-61.87,80.44-105.81,105.81h0Z"/>
  <path class="st0" d="M1051.76,1253.27h0s59.09-33.44,73.9-42.31c14.81-8.88,27.56-24.27,27.56-24.27,16.29,42.49,73.07-2.19,4.71-39.02-.12-.07-.24-.14-.36-.21h0c-25.37,43.95-61.87,80.44-105.81,105.81h0Z"/>
  <path class="st0" d="M762.68,1253.28h0s-58.5-34.46-73.59-42.84c-15.09-8.38-34.8-11.74-34.8-11.74,28.65-35.36-38.43-62.19-36.15,15.44v.41h0c50.74,0,100.59,13.36,144.54,38.73h0Z"/>
  <path class="st0" d="M618.5,1002.71h0s-.59,67.89-.3,85.16c.28,17.26,7.23,36,7.23,36-44.94-7.13-34.64,64.37,31.44,23.59.12-.07.24-.14.36-.21h0c-25.37-43.95-38.73-93.8-38.73-144.54h0Z"/>
  <path class="st0" d="M145.77,1609.44c25.37,43.95,38.73,93.8,38.73,144.54h0l-72.27-125.18,33.54-19.37h0Z"/>
  <path class="st0" d="M145.77,1609.44c-25.37-43.95-61.87-80.44-105.81-105.81h0l72.27,125.18,33.54-19.37Z"/>
  <path class="st0" d="M329.04,1503.63h0c-43.95,25.37-80.44,61.87-105.81,105.81l33.54,19.36h0l33.54,19.37c25.37-43.95,38.73-93.8,38.73-144.54h0Z"/>
  <path class="st0" d="M290.31,1648.17l-33.54-19.37h0l-33.54-19.37c-25.37,43.95-38.73,93.8-38.73,144.54h0c43.95-25.37,80.44-61.87,105.81-105.81h0Z"/>
  <path class="st0" d="M329.04,1715.26c-50.75,0-100.6,13.36-144.54,38.73h144.54v-38.73Z"/>
  <path class="st0" d="M39.96,1503.62h0s58.5,34.46,73.59,42.84,34.8,11.74,34.8,11.74c-28.65,35.36,38.43,62.19,36.15-15.44v-.41h0c-50.74,0-100.59-13.36-144.54-38.73h0Z"/>
  <path class="st0" d="M473.59,1753.99c0-50.75-13.36-100.6-38.73-144.54l-33.54,19.37h0l-33.54,19.36c25.37,43.95,61.87,80.44,105.81,105.81h0Z"/>
  <path class="st0" d="M434.85,1609.44c-25.37-43.95-61.87-80.44-105.81-105.81h0c0,50.75,13.36,100.6,38.73,144.54l33.54-19.37h0l33.54-19.36h0Z"/>
  <path class="st0" d="M329.04,1715.26c50.75,0,100.6,13.36,144.54,38.73h-144.54v-38.73Z"/>
  <path class="st0" d="M512.32,1609.44c25.37-43.95,61.87-80.44,105.81-105.81h0l-72.27,125.18-33.54-19.37Z"/>
  <path class="st0" d="M512.32,1609.44c-25.37,43.95-38.73,93.8-38.73,144.54h0l72.27-125.18-33.54-19.37h0Z"/>
  <path class="st0" d="M579.39,1648.17c25.37-43.95,38.73-93.8,38.73-144.54h0l-72.27,125.18,33.54,19.37h0Z"/>
  <path class="st0" d="M579.39,1648.17c-25.37,43.95-61.87,80.44-105.81,105.81h0l72.27-125.18,33.54,19.37Z"/>
  <path class="st0" d="M473.58,1753.98h0c43.95,25.37,93.8,38.73,144.54,38.73v-38.73h0v-38.73c-50.75,0-100.6,13.36-144.54,38.73h0Z"/>
  <path class="st0" d="M579.39,1859.8c25.37,43.95,38.73,93.8,38.73,144.54h0l-72.27-125.18,33.54-19.37h0Z"/>
  <path class="st0" d="M579.39,1859.8c-25.37-43.95-61.87-80.44-105.81-105.81h0l72.27,125.18,33.54-19.37h0Z"/>
  <path class="st0" d="M145.77,1898.53c25.37-43.95,38.73-93.8,38.73-144.54h0l-72.27,125.18,33.54,19.37h0Z"/>
  <path class="st0" d="M145.77,1898.53c-25.37,43.95-61.87,80.44-105.81,105.81h0l72.27-125.18,33.54,19.37h0Z"/>
  <path class="st0" d="M329.04,1792.72c-50.75,0-100.6-13.36-144.54-38.73h144.54v38.73Z"/>
  <path class="st0" d="M329.04,2004.34c0-50.75-13.36-100.6-38.73-144.54l-33.54,19.37h0l-33.54,19.36c25.37,43.95,61.87,80.44,105.81,105.81h0Z"/>
  <path class="st0" d="M290.31,1859.8c-25.37-43.95-61.87-80.44-105.81-105.81h0c0,50.75,13.36,100.6,38.73,144.54l33.54-19.37h0l33.54-19.37h0Z"/>
  <path class="st0" d="M329.04,1792.72c50.75,0,100.6-13.36,144.54-38.73h-144.54v38.73Z"/>
  <path class="st0" d="M473.58,1753.98h0c-43.95,25.37-80.44,61.87-105.81,105.81l33.54,19.36h0l33.54,19.37c25.37-43.95,38.73-93.8,38.73-144.54h0Z"/>
  <path class="st0" d="M434.85,1898.53l-33.54-19.37h0l-33.54-19.37c-25.37,43.95-38.73,93.8-38.73,144.54h0c43.95-25.37,80.44-61.87,105.81-105.81h0Z"/>
  <path class="st0" d="M512.31,1898.53c25.37,43.95,61.87,80.44,105.81,105.81h0l-72.27-125.18-33.54,19.37h0Z"/>
  <path class="st0" d="M512.31,1898.53c-25.37-43.95-38.73-93.8-38.73-144.54h0l72.27,125.18-33.54,19.37h0Z"/>
  <path class="st0" d="M78.69,1648.18c25.37,43.95,61.87,80.44,105.81,105.81h0l-72.27-125.18s-33.54,19.37-33.54,19.37Z"/>
  <path class="st0" d="M78.69,1648.18c-25.37-43.95-38.73-93.8-38.73-144.54h0l72.27,125.18-33.54,19.37h0Z"/>
  <path class="st0" d="M184.5,1753.99c-43.95-25.37-93.8-38.73-144.54-38.73v38.73h0v38.73c50.75,0,100.6-13.36,144.54-38.73h0Z"/>
  <path class="st0" d="M78.69,1859.8c25.37-43.95,61.87-80.44,105.81-105.81h0l-72.27,125.18-33.54-19.37h0Z"/>
  <path class="st0" d="M78.69,1859.8c-25.37,43.95-38.73,93.8-38.73,144.54h0l72.27-125.18-33.54-19.37h0Z"/>
  <path class="st0" d="M39.96,1503.63c43.95,25.37,93.79,38.73,144.54,38.73v-38.73"/>
  <path class="st0" d="M184.5,2004.35h0v-38.74c-50.75,0-100.6,13.36-144.54,38.73h0"/>
  <path class="st0" d="M473.58,2004.35h0v-38.74c-50.75,0-100.6,13.36-144.54,38.73h0"/>
  <path class="st0" d="M618.12,2004.35h0c-43.95-25.37-93.8-38.73-144.54-38.73v38.73h0"/>
  <path class="st0" d="M184.5,1503.63v38.73c50.74,0,100.59-13.36,144.54-38.73"/>
  <path class="st0" d="M329.05,1503.63c43.95,25.37,93.79,38.73,144.54,38.73v-38.73"/>
  <path class="st0" d="M473.59,1503.63v38.73c50.74,0,100.59-13.36,144.54-38.73"/>
  <path class="st0" d="M329.03,2004.35h0c-43.95-25.37-93.8-38.73-144.54-38.73v38.73h0"/>
  <path class="st0" d="M184.14,1754.19h0s.59-67.89.3-85.16c-.28-17.26-7.23-36-7.23-36,44.94,7.13,34.64-64.37-31.44-23.59-.12.07-.24.14-.36.21h0c25.37,43.95,38.73,93.8,38.73,144.54h0Z"/>
  <path class="st0" d="M329.4,1503.84h0s-59.09,33.44-73.9,42.31c-14.81,8.88-27.56,24.27-27.56,24.27-16.29-42.49-73.07,2.19-4.71,39.02.12.07.24.14.36.21h0c25.37-43.95,61.87-80.44,105.81-105.81h0Z"/>
  <path class="st0" d="M473.22,1754.2h0s-58.5-34.46-73.59-42.84-34.8-11.74-34.8-11.74c28.65-35.36-38.43-62.19-36.15,15.44v.41h0c50.74,0,100.59,13.36,144.54,38.73h0Z"/>
  <path class="st0" d="M329.04,1503.63h0s-.59,67.89-.3,85.16c.28,17.26,7.23,36,7.23,36-44.94-7.13-34.64,64.37,31.44,23.59.12-.07.24-.14.36-.21h0c-25.37-43.95-38.73-93.8-38.73-144.54h0Z"/>
  <path class="st0" d="M183.78,1753.98h0s59.09-33.44,73.9-42.31c14.81-8.88,27.56-24.27,27.56-24.27,16.29,42.49,73.07-2.19,4.71-39.02-.12-.07-.24-.14-.36-.21h0c-25.37,43.95-61.87,80.44-105.81,105.81h0Z"/>
  <path class="st0" d="M329.04,1503.63h0s58.5,34.46,73.59,42.84,34.8,11.74,34.8,11.74c-28.65,35.36,38.43,62.19,36.15-15.44v-.41h0c-50.74,0-100.59-13.36-144.54-38.73h0Z"/>
  <path class="st0" d="M473.22,1754.2h0s.59-67.89.3-85.16c-.28-17.26-7.23-36-7.23-36,44.94,7.13,34.64-64.37-31.44-23.59-.12.07-.24.14-.36.21h0c25.37,43.95,38.73,93.8,38.73,144.54h0Z"/>
  <path class="st0" d="M618.48,1503.84h0s-59.09,33.44-73.9,42.31c-14.81,8.88-27.56,24.27-27.56,24.27-16.29-42.49-73.07,2.19-4.71,39.02.12.07.24.14.36.21h0c25.37-43.95,61.87-80.44,105.81-105.81h0Z"/>
  <path class="st0" d="M184.5,1753.99h0s58.5,34.46,73.59,42.84,34.8,11.74,34.8,11.74c-28.65,35.36,38.43,62.19,36.15-15.44v-.41h0c-50.74,0-100.59-13.36-144.54-38.73h0Z"/>
  <path class="st0" d="M328.68,2004.55h0s.59-67.89.3-85.16c-.28-17.26-7.23-36-7.23-36,44.94,7.13,34.64-64.37-31.44-23.59-.12.07-.24.14-.36.21h0c25.37,43.95,38.73,93.8,38.73,144.54h0Z"/>
  <path class="st0" d="M473.94,1754.2h0s-59.09,33.44-73.9,42.31c-14.81,8.88-27.56,24.27-27.56,24.27-16.29-42.49-73.07,2.19-4.71,39.02.12.07.24.14.36.21h0c25.37-43.95,61.87-80.44,105.81-105.81h0Z"/>
  <path class="st0" d="M184.5,1753.99h0s-59.09,33.44-73.9,42.31c-14.81,8.88-27.56,24.27-27.56,24.27-16.29-42.49-73.07,2.19-4.71,39.02.12.07.24.14.36.21h0c25.37-43.95,61.87-80.44,105.81-105.81h0Z"/>
  <path class="st0" d="M473.58,1753.98h0s58.5,34.46,73.59,42.84c15.09,8.38,34.8,11.74,34.8,11.74-28.65,35.36,38.43,62.19,36.15-15.44v-.41h0c-50.74,0-100.59-13.36-144.54-38.73h0Z"/>
  <path class="st0" d="M617.76,2004.55h0s.59-67.89.3-85.16c-.28-17.26-7.23-36-7.23-36,44.94,7.13,34.64-64.37-31.44-23.59-.12.07-.24.14-.36.21h0c25.37,43.95,38.73,93.8,38.73,144.54h0Z"/>
  <path class="st0" d="M328.68,2004.55h0s-58.5-34.46-73.59-42.84-34.8-11.74-34.8-11.74c28.65-35.36-38.43-62.19-36.15,15.44v.41h0c50.74,0,100.59,13.36,144.54,38.73h0Z"/>
  <path class="st0" d="M184.5,1753.98h0s-.59,67.89-.3,85.16c.28,17.26,7.23,36,7.23,36-44.94-7.13-34.64,64.37,31.44,23.59.12-.07.24-.14.36-.21h0c-25.37-43.95-38.73-93.8-38.73-144.54h0Z"/>
  <path class="st0" d="M39.24,2004.34h0s59.09-33.44,73.9-42.31c14.81-8.88,27.56-24.27,27.56-24.27,16.29,42.49,73.07-2.19,4.71-39.02-.12-.07-.24-.14-.36-.21h0c-25.37,43.95-61.87,80.44-105.81,105.81h0Z"/>
  <path class="st0" d="M617.76,2004.55h0s-58.5-34.46-73.59-42.84-34.8-11.74-34.8-11.74c28.65-35.36-38.43-62.19-36.15,15.44v.41h0c50.74,0,100.59,13.36,144.54,38.73h0Z"/>
  <path class="st0" d="M473.59,1753.99h0s-.59,67.89-.3,85.16c.28,17.26,7.23,36,7.23,36-44.94-7.13-34.64,64.37,31.44,23.59.12-.07.24-.14.36-.21h0c-25.37-43.95-38.73-93.8-38.73-144.54h0Z"/>
  <path class="st0" d="M328.32,2004.34h0s59.09-33.44,73.9-42.31c14.81-8.88,27.56-24.27,27.56-24.27,16.29,42.49,73.07-2.19,4.71-39.02-.12-.07-.24-.14-.36-.21h0c-25.37,43.95-61.87,80.44-105.81,105.81h0Z"/>
  <path class="st0" d="M473.59,1753.99h0s59.09-33.44,73.9-42.31c14.81-8.88,27.56-24.27,27.56-24.27,16.29,42.49,73.07-2.19,4.71-39.02-.12-.07-.24-.14-.36-.21h0c-25.37,43.95-61.87,80.44-105.81,105.81h0Z"/>
  <path class="st0" d="M184.5,1753.99h0s-58.5-34.46-73.59-42.84c-15.09-8.38-34.8-11.74-34.8-11.74,28.65-35.36-38.43-62.19-36.15,15.44v.41h0c50.74,0,100.59,13.36,144.54,38.73h0Z"/>
  <path class="st0" d="M40.32,1503.42h0s-.59,67.89-.3,85.16c.28,17.26,7.23,36,7.23,36-44.94-7.13-34.64,64.37,31.44,23.59.12-.07.24-.14.36-.21h0c-25.37-43.95-38.73-93.8-38.73-144.54h0Z"/>
  <path class="st0" d="M723.57,1609.65c25.37,43.95,38.73,93.8,38.73,144.54h0l-72.27-125.18,33.54-19.37h0Z"/>
  <path class="st0" d="M723.57,1609.65c-25.37-43.95-61.87-80.44-105.81-105.81h0l72.27,125.18,33.54-19.37Z"/>
  <path class="st0" d="M906.85,1503.84h0c-43.95,25.37-80.44,61.87-105.81,105.81l33.54,19.36h0l33.54,19.37c25.37-43.95,38.73-93.8,38.73-144.54h0Z"/>
  <path class="st0" d="M868.12,1648.38l-33.54-19.37h0l-33.54-19.37c-25.37,43.95-38.73,93.8-38.73,144.54h0c43.95-25.37,80.44-61.87,105.81-105.81h0Z"/>
  <path class="st0" d="M906.85,1715.46c-50.75,0-100.6,13.36-144.54,38.73h144.54v-38.73Z"/>
  <path class="st0" d="M617.77,1503.83h0s58.5,34.46,73.59,42.84,34.8,11.74,34.8,11.74c-28.65,35.36,38.43,62.19,36.15-15.44v-.41h0c-50.74,0-100.59-13.36-144.54-38.73h0Z"/>
  <path class="st0" d="M1051.39,1754.2c0-50.75-13.36-100.6-38.73-144.54l-33.54,19.37h0l-33.54,19.36c25.37,43.95,61.87,80.44,105.81,105.81h0Z"/>
  <path class="st0" d="M1012.66,1609.65c-25.37-43.95-61.87-80.44-105.81-105.81h0c0,50.75,13.36,100.6,38.73,144.54l33.54-19.37h0l33.54-19.36h0Z"/>
  <path class="st0" d="M906.85,1715.47c50.75,0,100.6,13.36,144.54,38.73h-144.54v-38.73Z"/>
  <path class="st0" d="M1090.12,1609.65c25.37-43.95,61.87-80.44,105.81-105.81h0l-72.27,125.18-33.54-19.37Z"/>
  <path class="st0" d="M1090.12,1609.65c-25.37,43.95-38.73,93.8-38.73,144.54h0l72.27-125.18-33.54-19.37h0Z"/>
  <path class="st0" d="M1157.2,1648.38c25.37-43.95,38.73-93.8,38.73-144.54h0l-72.27,125.18,33.54,19.37h0Z"/>
  <path class="st0" d="M1157.2,1648.38c-25.37,43.95-61.87,80.44-105.81,105.81h0l72.27-125.18,33.54,19.37Z"/>
  <path class="st0" d="M1051.39,1754.19h0c43.95,25.37,93.8,38.73,144.54,38.73v-38.73h0v-38.73c-50.75,0-100.6,13.36-144.54,38.73Z"/>
  <path class="st0" d="M1157.2,1860.01c25.37,43.95,38.73,93.8,38.73,144.54h0l-72.27-125.18,33.54-19.37h0Z"/>
  <path class="st0" d="M1157.2,1860.01c-25.37-43.95-61.87-80.44-105.81-105.81h0l72.27,125.18,33.54-19.37h0Z"/>
  <path class="st0" d="M723.57,1898.74c25.37-43.95,38.73-93.8,38.73-144.54h0l-72.27,125.18,33.54,19.37h0Z"/>
  <path class="st0" d="M723.57,1898.74c-25.37,43.95-61.87,80.44-105.81,105.81h0l72.27-125.18,33.54,19.37Z"/>
  <path class="st0" d="M906.85,1792.92c-50.75,0-100.6-13.36-144.54-38.73h144.54v38.73Z"/>
  <path class="st0" d="M906.85,2004.55c0-50.75-13.36-100.6-38.73-144.54l-33.54,19.37h0l-33.54,19.36c25.37,43.95,61.87,80.44,105.81,105.81h0Z"/>
  <path class="st0" d="M868.12,1860.01c-25.37-43.95-61.87-80.44-105.81-105.81h0c0,50.75,13.36,100.6,38.73,144.54l33.54-19.37h0l33.54-19.37h0Z"/>
  <path class="st0" d="M906.85,1792.92c50.75,0,100.6-13.36,144.54-38.73h-144.54v38.73Z"/>
  <path class="st0" d="M1051.39,1754.19h0c-43.95,25.37-80.44,61.87-105.81,105.81l33.54,19.36h0l33.54,19.37c25.37-43.95,38.73-93.8,38.73-144.54h0Z"/>
  <path class="st0" d="M1012.66,1898.74l-33.54-19.37h0l-33.54-19.37c-25.37,43.95-38.73,93.8-38.73,144.54h0c43.95-25.37,80.44-61.87,105.81-105.81h0Z"/>
  <path class="st0" d="M1090.12,1898.74c25.37,43.95,61.87,80.44,105.81,105.81h0l-72.27-125.18-33.54,19.37Z"/>
  <path class="st0" d="M1090.12,1898.74c-25.37-43.95-38.73-93.8-38.73-144.54h0l72.27,125.18-33.54,19.37h0Z"/>
  <path class="st0" d="M656.49,1648.39c25.37,43.95,61.87,80.44,105.81,105.81h0l-72.27-125.18-33.54,19.37Z"/>
  <path class="st0" d="M656.49,1648.39c-25.37-43.95-38.73-93.8-38.73-144.54h0l72.27,125.18-33.54,19.37h0Z"/>
  <path class="st0" d="M762.3,1754.2c-43.95-25.37-93.8-38.73-144.54-38.73v38.73h0v38.73c50.75,0,100.6-13.36,144.54-38.73h0Z"/>
  <path class="st0" d="M656.49,1860.01c25.37-43.95,61.87-80.44,105.81-105.81h0l-72.27,125.18-33.54-19.37h0Z"/>
  <path class="st0" d="M656.49,1860.01c-25.37,43.95-38.73,93.8-38.73,144.54h0l72.27-125.18-33.54-19.37h0Z"/>
  <path class="st0" d="M617.77,1503.84c43.95,25.37,93.79,38.73,144.54,38.73v-38.73"/>
  <path class="st0" d="M762.3,2004.56h0v-38.74c-50.75,0-100.6,13.36-144.54,38.73h0"/>
  <path class="st0" d="M1051.39,2004.56h0v-38.74c-50.75,0-100.6,13.36-144.54,38.73h0"/>
  <path class="st0" d="M1195.92,2004.56h0c-43.95-25.37-93.8-38.73-144.54-38.73v38.73h0"/>
  <path class="st0" d="M762.3,1503.84v38.73c50.74,0,100.59-13.36,144.54-38.73"/>
  <path class="st0" d="M906.85,1503.84c43.95,25.37,93.79,38.73,144.54,38.73v-38.73"/>
  <path class="st0" d="M1051.39,1503.84v38.73c50.74,0,100.59-13.36,144.54-38.73"/>
  <path class="st0" d="M906.84,2004.56h0c-43.95-25.37-93.8-38.73-144.54-38.73v38.73h0"/>
  <path class="st0" d="M761.94,1754.4h0s.59-67.89.3-85.16c-.28-17.26-7.23-36-7.23-36,44.94,7.13,34.64-64.37-31.44-23.59-.12.07-.24.14-.36.21h0c25.37,43.95,38.73,93.8,38.73,144.54h0Z"/>
  <path class="st0" d="M907.21,1504.05h0s-59.09,33.44-73.9,42.31c-14.81,8.88-27.56,24.27-27.56,24.27-16.29-42.49-73.07,2.19-4.71,39.02.12.07.24.14.36.21h0c25.37-43.95,61.87-80.44,105.81-105.81h0Z"/>
  <path class="st0" d="M1051.03,1754.41h0s-58.5-34.46-73.59-42.84c-15.09-8.38-34.8-11.74-34.8-11.74,28.65-35.36-38.43-62.19-36.15,15.44v.41h0c50.74,0,100.59,13.36,144.54,38.73h0Z"/>
  <path class="st0" d="M906.85,1503.84h0s-.59,67.89-.3,85.16c.28,17.26,7.23,36,7.23,36-44.94-7.13-34.64,64.37,31.44,23.59.12-.07.24-.14.36-.21h0c-25.37-43.95-38.73-93.8-38.73-144.54h0Z"/>
  <path class="st0" d="M761.59,1754.19h0s59.09-33.44,73.9-42.31c14.81-8.88,27.56-24.27,27.56-24.27,16.29,42.49,73.07-2.19,4.71-39.02-.12-.07-.24-.14-.36-.21h0c-25.37,43.95-61.87,80.44-105.81,105.81h0Z"/>
  <path class="st0" d="M906.85,1503.84h0s58.5,34.46,73.59,42.84,34.8,11.74,34.8,11.74c-28.65,35.36,38.43,62.19,36.15-15.44v-.41h0c-50.74,0-100.59-13.36-144.54-38.73h0Z"/>
  <path class="st0" d="M1051.03,1754.41h0s.59-67.89.3-85.16c-.28-17.26-7.23-36-7.23-36,44.94,7.13,34.64-64.37-31.44-23.59-.12.07-.24.14-.36.21h0c25.37,43.95,38.73,93.8,38.73,144.54h0Z"/>
  <path class="st0" d="M1196.29,1504.05h0s-59.09,33.44-73.9,42.31c-14.81,8.88-27.56,24.27-27.56,24.27-16.29-42.49-73.07,2.19-4.71,39.02.12.07.24.14.36.21h0c25.37-43.95,61.87-80.44,105.81-105.81h0Z"/>
  <path class="st0" d="M762.3,1754.2h0s58.5,34.46,73.59,42.84c15.09,8.38,34.8,11.74,34.8,11.74-28.65,35.36,38.43,62.19,36.15-15.44v-.41h0c-50.74,0-100.59-13.36-144.54-38.73h0Z"/>
  <path class="st0" d="M906.48,2004.76h0s.59-67.89.3-85.16c-.28-17.26-7.23-36-7.23-36,44.94,7.13,34.64-64.37-31.44-23.59-.12.07-.24.14-.36.21h0c25.37,43.95,38.73,93.8,38.73,144.54h0Z"/>
  <path class="st0" d="M1051.74,1754.41h0s-59.09,33.44-73.9,42.31c-14.81,8.88-27.56,24.27-27.56,24.27-16.29-42.49-73.07,2.19-4.71,39.02.12.07.24.14.36.21h0c25.37-43.95,61.87-80.44,105.81-105.81h0Z"/>
  <path class="st0" d="M762.3,1754.2h0s-59.09,33.44-73.9,42.31c-14.81,8.88-27.56,24.27-27.56,24.27-16.29-42.49-73.07,2.19-4.71,39.02.12.07.24.14.36.21h0c25.37-43.95,61.87-80.44,105.81-105.81h0Z"/>
  <path class="st0" d="M1051.39,1754.19h0s58.5,34.46,73.59,42.84c15.09,8.38,34.8,11.74,34.8,11.74-28.65,35.36,38.43,62.19,36.15-15.44v-.41h0c-50.74,0-100.59-13.36-144.54-38.73h0Z"/>
  <path class="st0" d="M906.48,2004.76h0s-58.5-34.46-73.59-42.84-34.8-11.74-34.8-11.74c28.65-35.36-38.43-62.19-36.15,15.44v.41h0c50.74,0,100.59,13.36,144.54,38.73h0Z"/>
  <path class="st0" d="M762.3,1754.19h0s-.59,67.89-.3,85.16c.28,17.26,7.23,36,7.23,36-44.94-7.13-34.64,64.37,31.44,23.59.12-.07.24-.14.36-.21h0c-25.37-43.95-38.73-93.8-38.73-144.54h0Z"/>
  <path class="st0" d="M617.04,2004.55h0s59.09-33.44,73.9-42.31c14.81-8.88,27.56-24.27,27.56-24.27,16.29,42.49,73.07-2.19,4.71-39.02-.12-.07-.24-.14-.36-.21h0c-25.37,43.95-61.87,80.44-105.81,105.81h0Z"/>
  <path class="st0" d="M1195.57,2004.76h0s-58.5-34.46-73.59-42.84-34.8-11.74-34.8-11.74c28.65-35.36-38.43-62.19-36.15,15.44v.41h0c50.74,0,100.59,13.36,144.54,38.73h0Z"/>
  <path class="st0" d="M1051.39,1754.2h0s-.59,67.89-.3,85.16c.28,17.26,7.23,36,7.23,36-44.94-7.13-34.64,64.37,31.44,23.59.12-.07.24-.14.36-.21h0c-25.37-43.95-38.73-93.8-38.73-144.54h0Z"/>
  <path class="st0" d="M906.13,2004.55h0s59.09-33.44,73.9-42.31c14.81-8.88,27.56-24.27,27.56-24.27,16.29,42.49,73.07-2.19,4.71-39.02-.12-.07-.24-.14-.36-.21h0c-25.37,43.95-61.87,80.44-105.81,105.81h0Z"/>
  <path class="st0" d="M1051.39,1754.2h0s59.09-33.44,73.9-42.31c14.81-8.88,27.56-24.27,27.56-24.27,16.29,42.49,73.07-2.19,4.71-39.02-.12-.07-.24-.14-.36-.21h0c-25.37,43.95-61.87,80.44-105.81,105.81h0Z"/>
  <path class="st0" d="M762.31,1754.2h0s-58.5-34.46-73.59-42.84c-15.09-8.38-34.8-11.74-34.8-11.74,28.65-35.36-38.43-62.19-36.15,15.44v.41h0c50.74,0,100.59,13.36,144.54,38.73h0Z"/>
  <path class="st0" d="M618.13,1503.63h0s-.59,67.89-.3,85.16c.28,17.26,7.23,36,7.23,36-44.94-7.13-34.64,64.37,31.44,23.59.12-.07.24-.14.36-.21h0c-25.37-43.95-38.73-93.8-38.73-144.54h0Z"/>
  <path class="st0" d="M41.42,501.37h0s.59-67.89.3-85.16c-.28-17.26-7.23-36-7.23-36,44.94,7.13,34.64-64.37-31.44-23.59-.12.07-.24.14-.36.21h0c25.38,43.95,38.73,93.8,38.73,144.54h0Z"/>
  <path class="st0" d="M41.06,1002.29h0s.59-67.89.3-85.16c-.28-17.26-7.23-36-7.23-36,44.94,7.13,34.64-64.37-31.44-23.59-.12.07-.24.14-.36.21h0c25.37,43.95,38.73,93.8,38.73,144.54h0Z"/>
  <path class="st0" d="M39.97,1503.21h0s.59-67.89.3-85.16c-.28-17.26-7.23-36-7.23-36,44.94,7.13,34.64-64.37-31.44-23.59-.12.07-.24.14-.36.21h0c25.37,43.95,38.73,93.8,38.73,144.54h0Z"/>
  <path class="st0" d="M39.6,2004.13h0s.59-67.89.3-85.16c-.28-17.26-7.23-36-7.23-36,44.94,7.13,34.64-64.37-31.44-23.59-.12.07-.24.14-.36.21h0c25.37,43.95,38.73,93.8,38.73,144.54h0Z"/></symbol></defs><use href="#tile" x="-250.70249999999996" y="-501.405" width="501.405" height="501.405"/><use href="#tile" x="38.3775" y="-501.405" width="501.405" height="501.405"/><use href="#tile" x="327.4575" y="-501.405" width="501.405" height="501.405"/><use href="#tile" x="-395.24249999999995" y="0" width="501.405" height="501.405"/><use href="#tile" x="-106.1625" y="0" width="501.405" height="501.405"/><use href="#tile" x="182.9175" y="0" width="501.405" height="501.405"/><use href="#tile" x="-250.70249999999996" y="501.405" width="501.405" height="501.405"/><use href="#tile" x="38.3775" y="501.405" width="501.405" height="501.405"/><use href="#tile" x="327.4575" y="501.405" width="501.405" height="501.405"/></svg>