<svg xmlns="http://www.w3.org/2000/svg" viewBox="0 0 289.08 501.405" preserveAspectRatio="none"><defs><style>.st0{fill:none;stroke:#231f20;stroke-linejoin:bevel;stroke-width:2px}</style><symbol id="tile" viewBox="0 0 501.405 501.405" preserveAspectRatio="xMidYMid meet"><path class="st0" d="M147.59,106.68c25.37,43.95,38.73,93.8,38.73,144.54h0l-72.27-125.18,33.54-19.37h0Z"/><path class="st0" d="M147.59,106.68C122.22,62.74,85.72,26.24,41.78.87h0l72.27,125.18s33.54-19.37,33.54-19.37Z"/><path class="st0" d="M330.87.87h0c-43.95,25.37-80.44,61.87-105.81,105.81l33.54,19.36h0l33.54,19.37c25.37-43.95,38.73-93.8,38.73-144.54h0Z"/><path class="st0" d="M292.13,145.41l-33.54-19.37h0l-33.54-19.37c-25.37,43.95-38.73,93.8-38.73,144.54h0c43.95-25.37,80.44-61.87,105.81-105.81h0Z"/><path class="st0" d="M330.86,212.5c-50.75,0-100.6,13.36-144.54,38.73h144.54v-38.73Z"/><path class="st0" d="M41.78.87h0s58.5,34.46,73.59,42.84c15.09,8.38,34.8,11.74,34.8,11.74-28.65,35.36,38.43,62.19,36.15-15.44v-.41h0c-50.74,0-100.59-13.36-144.54-38.73h0Z"/><path class="st0" d="M475.41,251.23c0-50.75-13.36-100.6-38.73-144.54l-33.54,19.37h0l-33.54,19.36c25.37,43.95,61.87,80.44,105.81,105.81h0Z"/><path class="st0" d="M436.68,106.68c-25.37-43.95-61.87-80.44-105.81-105.81h0c0,50.75,13.36,100.6,38.73,144.54l33.54-19.37h0l33.54-19.36h0Z"/><path class="st0" d="M330.87,212.5c50.75,0,100.6,13.36,144.54,38.73h-144.54v-38.73Z"/><path class="st0" d="M514.14,106.68c25.37-43.95,61.87-80.44,105.81-105.81h0l-72.27,125.18-33.54-19.37h0Z"/><path class="st0" d="M514.14,106.68c-25.37,43.95-38.73,93.8-38.73,144.54h0l72.27-125.18-33.54-19.37h0Z"/><path class="st0" d="M581.22,145.41c25.37-43.95,38.73-93.8,38.73-144.54h0l-72.27,125.18,33.54,19.37h0Z"/><path class="st0" d="M581.22,145.41c-25.37,43.95-61.87,80.44-105.81,105.81h0l72.27-125.18,33.54,19.37Z"/><path class="st0" d="M475.41,251.22h0c43.95,25.37,93.8,38.73,144.54,38.73v-38.73h0v-38.73c-50.75,0-100.6,13.36-144.54,38.73h0Z"/><path class="st0" d="M581.22,357.04c25.37,43.95,38.73,93.8,38.73,144.54h0l-72.27-125.18,33.54-19.37h0Z"/><path class="st0" d="M581.22,357.04c-25.37-43.95-61.87-80.44-105.81-105.81h0l72.27,125.18,33.54-19.37Z"/><path class="st0" d="M147.59,395.77c25.37-43.95,38.73-93.8,38.73-144.54h0l-72.27,125.18,33.54,19.37h0Z"/><path class="st0" d="M147.59,395.77c-25.37,43.95-61.87,80.44-105.81,105.81h0l72.27-125.18,33.54,19.37Z"/><path class="st0" d="M330.86,289.96c-50.75,0-100.6-13.36-144.54-38.73h144.54v38.73Z"/><path class="st0" d="M330.86,501.58c0-50.75-13.36-100.6-38.73-144.54l-33.54,19.37h0l-33.54,19.36c25.37,43.95,61.87,80.44,105.81,105.81h0Z"/><path class="st0" d="M292.13,357.04c-25.37-43.95-61.87-80.44-105.81-105.81h0c0,50.75,13.36,100.6,38.73,144.54l33.54-19.37h0l33.54-19.37h0Z"/><path class="st0" d="M330.86,289.96c50.75,0,100.6-13.36,144.54-38.73h-144.54v38.73Z"/><path class="st0" d="M475.41,251.23h0c-43.95,25.37-80.44,61.87-105.81,105.81l33.54,19.36h0l33.54,19.37c25.37-43.95,38.73-93.8,38.73-144.54h0Z"/><path class="st0" d="M436.68,395.77l-33.54-19.37h0l-33.54-19.37c-25.37,43.95-38.73,93.8-38.73,144.54h0c43.95-25.37,80.44-61.87,105.81-105.81h0Z"/><path class="st0" d="M514.14,395.77c25.37,43.95,61.87,80.44,105.81,105.81h0l-72.27-125.18-33.54,19.37h0Z"/><path class="st0" d="M514.14,395.77c-25.37-43.95-38.73-93.8-38.73-144.54h0l72.27,125.18-33.54,19.37h0Z"/><path class="st0" d="M80.51,145.42c25.37,43.95,61.87,80.44,105.81,105.81h0l-72.27-125.18-33.54,19.37Z"/><path class="st0" d="M80.51,145.42C55.14,101.47,41.78,51.62,41.78.88h0l72.27,125.18-33.54,19.37h0Z"/><path class="st0" d="M186.32,251.23c-43.95-25.37-93.8-38.73-144.54-38.73v38.73h0v38.73c50.75,0,100.6-13.36,144.54-38.73h0Z"/><path class="st0" d="M80.51,357.04c25.37-43.95,61.87-80.44,105.81-105.81h0l-72.27,125.18-33.54-19.37Z"/><path class="st0" d="M80.51,357.04c-25.37,43.95-38.73,93.8-38.73,144.55h0l72.27-125.18-33.54-19.37h0Z"/><path class="st0" d="M41.78.88c43.95,25.37,93.79,38.73,144.54,38.73V.88"/><path class="st0" d="M186.32,501.59h0v-38.74c-50.75,0-100.6,13.36-144.54,38.73h0"/><path class="st0" d="M475.41,501.59h0v-38.74c-50.75,0-100.6,13.36-144.54,38.73h0"/><path class="st0" d="M619.94,501.59h0c-43.95-25.37-93.8-38.73-144.54-38.73v38.73h0"/><path class="st0" d="M186.32.88v38.73c50.74,0,100.59-13.36,144.54-38.73"/><path class="st0" d="M330.87.88c43.95,25.37,93.79,38.73,144.54,38.73V.88"/><path class="st0" d="M475.41.88v38.73c50.74,0,100.59-13.36,144.54-38.73"/><path class="st0" d="M330.86,501.59h0c-43.95-25.37-93.8-38.73-144.54-38.73v38.73h0"/><path class="st0" d="M185.96,251.43h0s.59-67.89.3-85.16c-.28-17.26-7.23-36-7.23-36,44.94,7.13,34.64-64.37-31.44-23.59-.12.07-.24.14-.36.21h0c25.37,43.95,38.73,93.8,38.73,144.54h0Z"/><path class="st0" d="M331.22,1.08h0s-59.09,33.44-73.9,42.31c-14.81,8.88-27.56,24.27-27.56,24.27-16.29-42.49-73.07,2.19-4.71,39.02.12.07.24.14.36.21h0c25.37-43.95,61.87-80.44,105.81-105.81h0Z"/><path class="st0" d="M475.04,251.44h0s-58.5-34.46-73.59-42.84c-15.09-8.38-34.8-11.74-34.8-11.74,28.65-35.36-38.43-62.19-36.15,15.44v.41h0c50.74,0,100.59,13.36,144.54,38.73h0Z"/><path class="st0" d="M330.86.87h0s-.59,67.89-.3,85.16c.28,17.26,7.23,36,7.23,36-44.94-7.13-34.64,64.37,31.44,23.59.12-.07.24-.14.36-.21h0c-25.37-43.95-38.73-93.8-38.73-144.54h0Z"/><path class="st0" d="M185.6,251.22h0s59.09-33.44,73.9-42.31c14.81-8.88,27.56-24.27,27.56-24.27,16.29,42.49,73.07-2.19,4.71-39.02-.12-.07-.24-.14-.36-.21h0c-25.37,43.95-61.87,80.44-105.81,105.81h0Z"/><path class="st0" d="M330.86.87h0s58.5,34.46,73.59,42.84,34.8,11.74,34.8,11.74c-28.65,35.36,38.43,62.19,36.15-15.44v-.41h0c-50.74,0-100.59-13.36-144.54-38.73h0Z"/><path class="st0" d="M475.04,251.44h0s.59-67.89.3-85.16c-.28-17.26-7.23-36-7.23-36,44.94,7.13,34.64-64.37-31.44-23.59l-.36.21h0c25.37,43.95,38.73,93.8,38.73,144.54h0Z"/><path class="st0" d="M620.3,1.09h0s-59.09,33.44-73.9,42.31c-14.81,8.88-27.56,24.27-27.56,24.27-16.29-42.49-73.07,2.19-4.71,39.02l.36.21h0c25.37-43.95,61.87-80.44,105.81-105.81h0Z"/><path class="st0" d="M186.32,251.23h0s58.5,34.46,73.59,42.84,34.8,11.74,34.8,11.74c-28.65,35.36,38.43,62.19,36.15-15.44v-.41h0c-50.74,0-100.59-13.36-144.54-38.73h0Z"/><path class="st0" d="M330.5,501.8h0s.59-67.89.3-85.16-7.23-36-7.23-36c44.94,7.13,34.64-64.37-31.44-23.59-.12.07-.24.14-.36.21h0c25.37,43.95,38.73,93.8,38.73,144.54h0Z"/><path class="st0" d="M475.76,251.44h0s-59.09,33.44-73.9,42.31c-14.81,8.88-27.56,24.27-27.56,24.27-16.29-42.49-73.07,2.19-4.71,39.02.12.07.24.14.36.21h0c25.37-43.95,61.87-80.44,105.81-105.81h0Z"/><path class="st0" d="M186.32,251.23h0s-59.09,33.44-73.9,42.31c-14.81,8.88-27.56,24.27-27.56,24.27-16.29-42.49-73.07,2.19-4.71,39.02.12.07.24.14.36.21h0c25.37-43.95,61.87-80.44,105.81-105.81h0Z"/><path class="st0" d="M475.41,251.23h0s58.5,34.46,73.59,42.84c15.09,8.38,34.8,11.74,34.8,11.74-28.65,35.36,38.43,62.19,36.15-15.44v-.41h0c-50.74,0-100.59-13.36-144.54-38.73h0Z"/><path class="st0" d="M619.58,501.79h0s.59-67.89.3-85.16c-.28-17.26-7.23-36-7.23-36,44.94,7.13,34.64-64.37-31.44-23.59-.12.07-.24.14-.36.21h0c25.37,43.95,38.73,93.8,38.73,144.54h0Z"/><path class="st0" d="M330.5,501.79h0s-58.5-34.46-73.59-42.84-34.8-11.74-34.8-11.74c28.65-35.36-38.43-62.19-36.15,15.44v.41h0c50.74,0,100.59,13.36,144.54,38.73h0Z"/><path class="st0" d="M186.32,251.22h0s-.59,67.89-.3,85.16c.28,17.26,7.23,36,7.23,36-44.94-7.13-34.64,64.37,31.44,23.59.12-.07.24-.14.36-.21h0c-25.37-43.95-38.73-93.8-38.73-144.54h0Z"/><path class="st0" d="M41.06,501.58h0s59.09-33.44,73.9-42.31c14.81-8.88,27.56-24.27,27.56-24.27,16.29,42.49,73.07-2.19,4.71-39.02-.12-.07-.24-.14-.36-.21h0c-25.37,43.95-61.87,80.44-105.81,105.81h0Z"/><path class="st0" d="M619.59,501.8h0s-58.5-34.46-73.59-42.84-34.8-11.74-34.8-11.74c28.65-35.36-38.43-62.19-36.15,15.44v.41h0c50.74,0,100.59,13.36,144.54,38.73h0Z"/><path class="st0" d="M475.41,251.23h0s-.59,67.89-.3,85.16c.28,17.26,7.23,36,7.23,36-44.94-7.13-34.64,64.37,31.44,23.59.12-.07.24-.14.36-.21h0c-25.37-43.95-38.73-93.8-38.73-144.54h0Z"/><path class="st0" d="M330.15,501.58h0s59.09-33.44,73.9-42.31c14.81-8.88,27.56-24.27,27.56-24.27,16.29,42.49,73.07-2.19,4.71-39.02-.12-.07-.24-.14-.36-.21h0c-25.37,43.95-61.87,80.44-105.81,105.81h0Z"/><path class="st0" d="M475.41,251.23h0s59.09-33.44,73.9-42.31c14.81-8.88,27.56-24.27,27.56-24.27,16.29,42.49,73.07-2.19,4.71-39.02-.12-.07-.24-.14-.36-.21h0c-25.37,43.95-61.87,80.44-105.81,105.81h0Z"/><path class="st0" d="M186.32,251.23h0s-58.5-34.46-73.59-42.84c-15.09-8.38-34.8-11.74-34.8-11.74,28.65-35.36-38.43-62.19-36.15,15.44v.41h0c50.74,0,100.59,13.36,144.54,38.73h0Z"/><path class="st0" d="M42.15.66h0s-.59,67.89-.3,85.16c.28,17.26,7.23,36,7.23,36-44.94-7.13-34.64,64.37,31.44,23.59.12-.07.24-.14.36-.21h0C55.5,101.26,42.15,51.41,42.15.66h0Z"/><path class="st0" d="M725.4,106.89c25.37,43.95,38.73,93.8,38.73,144.54h0l-72.27-125.18,33.54-19.37h0Z"/><path class="st0" d="M725.4,106.89c-25.37-43.95-61.87-80.44-105.81-105.81h0l72.27,125.18,33.54-19.37Z"/><path class="st0" d="M619.59,1.08h0s58.5,34.46,73.59,42.84,34.8,11.74,34.8,11.74c-28.65,35.36,38.43,62.19,36.15-15.44v-.41h0c-50.74,0-100.59-13.36-144.54-38.73h0Z"/><path class="st0" d="M725.4,395.98c25.37-43.95,38.73-93.8,38.73-144.54h0l-72.27,125.18,33.54,19.37h0Z"/><path class="st0" d="M725.4,395.98c-25.37,43.95-61.87,80.44-105.81,105.81h0l72.27-125.18,33.54,19.37Z"/><path class="st0" d="M658.31,145.63c25.37,43.95,61.87,80.44,105.81,105.81h0l-72.27-125.18-33.54,19.37Z"/><path class="st0" d="M658.31,145.63c-25.37-43.95-38.73-93.8-38.73-144.54h0l72.27,125.18-33.54,19.37h0Z"/><path class="st0" d="M764.13,251.44c-43.95-25.37-93.8-38.73-144.54-38.73v38.73h0v38.73c50.75,0,100.6-13.36,144.54-38.73h0Z"/><path class="st0" d="M658.31,357.25c25.37-43.95,61.87-80.44,105.81-105.81h0l-72.27,125.18-33.54-19.37Z"/><path class="st0" d="M658.31,357.25c-25.37,43.95-38.73,93.8-38.73,144.54h0l72.27-125.18-33.54-19.37h0Z"/><path class="st0" d="M619.59,1.08c43.95,25.37,93.79,38.73,144.54,38.73V1.08"/><path class="st0" d="M764.13,501.8h0v-38.74c-50.75,0-100.6,13.36-144.54,38.73h0"/><path class="st0" d="M764.13,1.08v38.73c50.74,0,100.59-13.36,144.54-38.73"/><path class="st0" d="M763.77,251.64h0s.59-67.89.3-85.16c-.28-17.26-7.23-36-7.23-36,44.94,7.13,34.64-64.37-31.44-23.59l-.36.21h0c25.37,43.95,38.73,93.8,38.73,144.54h0Z"/><path class="st0" d="M763.41,251.43h0s59.09-33.44,73.9-42.31c14.81-8.88,27.56-24.27,27.56-24.27,16.29,42.49,73.07-2.19,4.71-39.02-.12-.07-.24-.14-.36-.21h0c-25.37,43.95-61.87,80.44-105.81,105.81h0Z"/><path class="st0" d="M764.13,251.44h0s58.5,34.46,73.59,42.84,34.8,11.74,34.8,11.74c-28.65,35.36,38.43,62.19,36.15-15.44v-.41h0c-50.74,0-100.59-13.36-144.54-38.73h0Z"/><path class="st0" d="M764.13,251.44h0s-59.09,33.44-73.9,42.31c-14.81,8.88-27.56,24.27-27.56,24.27-16.29-42.49-73.07,2.19-4.71,39.02.12.07.24.14.36.21h0c25.37-43.95,61.87-80.44,105.81-105.81h0Z"/><path class="st0" d="M764.13,251.43h0s-.59,67.89-.3,85.16c.28,17.26,7.23,36,7.23,36-44.94-7.13-34.64,64.37,31.44,23.59.12-.07.24-.14.36-.21h0c-25.37-43.95-38.73-93.8-38.73-144.54h0Z"/><path class="st0" d="M618.87,501.79h0s59.09-33.44,73.9-42.31c14.81-8.88,27.56-24.27,27.56-24.27,16.29,42.49,73.07-2.19,4.71-39.02-.12-.07-.24-.14-.36-.21h0c-25.37,43.95-61.87,80.44-105.81,105.81h0Z"/><path class="st0" d="M764.13,251.44h0s-58.5-34.46-73.59-42.84c-15.09-8.38-34.8-11.74-34.8-11.74,28.65-35.36-38.43-62.19-36.15,15.44v.41h0c50.74,0,100.59,13.36,144.54,38.73h0Z"/><path class="st0" d="M619.95.87h0s-.59,67.89-.3,85.16c.28,17.26,7.23,36,7.23,36-44.94-7.13-34.64,64.37,31.44,23.59.12-.07.24-.14.36-.21h0c-25.37-43.95-38.73-93.8-38.73-144.54h0Z"/><path class="st0" d="M147.22,607.61c25.37,43.95,38.73,93.8,38.73,144.54h0l-72.27-125.18,33.54-19.37h0Z"/><path class="st0" d="M147.22,607.61c-25.37-43.95-61.87-80.44-105.81-105.81h0l72.27,125.18,33.54-19.37Z"/><path class="st0" d="M330.5,501.79h0c-43.95,25.37-80.44,61.87-105.81,105.81l33.54,19.36h0l33.54,19.37c25.37-43.95,38.73-93.8,38.73-144.54h0Z"/><path class="st0" d="M291.77,646.34l-33.54-19.37h0l-33.54-19.37c-25.37,43.95-38.73,93.8-38.73,144.54h0c43.95-25.37,80.44-61.87,105.81-105.81h0Z"/><path class="st0" d="M330.5,713.42c-50.75,0-100.6,13.36-144.54,38.73h144.54v-38.73Z"/><path class="st0" d="M41.41,501.79h0s58.5,34.46,73.59,42.84c15.09,8.38,34.8,11.74,34.8,11.74-28.65,35.36,38.43,62.19,36.15-15.44v-.41h0c-50.74,0-100.59-13.36-144.54-38.73h0Z"/><path class="st0" d="M475.04,752.15c0-50.75-13.36-100.6-38.73-144.54l-33.54,19.37h0l-33.54,19.36c25.37,43.95,61.87,80.44,105.81,105.81h0Z"/><path class="st0" d="M436.31,607.61c-25.37-43.95-61.87-80.44-105.81-105.81h0c0,50.75,13.36,100.6,38.73,144.54l33.54-19.37h0l33.54-19.36h0Z"/><path class="st0" d="M330.5,713.42c50.75,0,100.6,13.36,144.54,38.73h-144.54v-38.73Z"/><path class="st0" d="M513.77,607.61c25.37-43.95,61.87-80.44,105.81-105.81h0l-72.27,125.18-33.54-19.37h0Z"/><path class="st0" d="M513.77,607.61c-25.37,43.95-38.73,93.8-38.73,144.54h0l72.27-125.18-33.54-19.37h0Z"/><path class="st0" d="M580.85,646.33c25.37-43.95,38.73-93.8,38.73-144.54h0l-72.27,125.18,33.54,19.37h0Z"/><path class="st0" d="M580.85,646.33c-25.37,43.95-61.87,80.44-105.81,105.81h0l72.27-125.18,33.54,19.37Z"/><path class="st0" d="M475.04,752.15h0c43.95,25.37,93.8,38.73,144.54,38.73v-38.73h0v-38.73c-50.75,0-100.6,13.36-144.54,38.73Z"/><path class="st0" d="M330.5,790.88c-50.75,0-100.6-13.36-144.54-38.73h144.54v38.73Z"/><path class="st0" d="M330.5,790.88c50.75,0,100.6-13.36,144.54-38.73h-144.54v38.73Z"/><path class="st0" d="M475.04,752.15h0c-43.95,25.37-80.44,61.87-105.81,105.81l33.54,19.36h0l33.54,19.37c25.37-43.95,38.73-93.8,38.73-144.54h0Z"/><path class="st0" d="M80.14,646.34c25.37,43.95,61.87,80.44,105.81,105.81h0l-72.27-125.18s-33.54,19.37-33.54,19.37Z"/><path class="st0" d="M80.14,646.34c-25.37-43.95-38.73-93.8-38.73-144.54h0l72.27,125.18-33.54,19.37h0Z"/><path class="st0" d="M185.95,752.15c-43.95-25.37-93.8-38.73-144.54-38.73v38.73h0v38.73c50.75,0,100.6-13.36,144.54-38.73h0Z"/><path class="st0" d="M41.42,501.8c43.95,25.37,93.79,38.73,144.54,38.73v-38.73"/><path class="st0" d="M185.95,501.8v38.73c50.74,0,100.59-13.36,144.54-38.73"/><path class="st0" d="M330.5,501.8c43.95,25.37,93.79,38.73,144.54,38.73v-38.73"/><path class="st0" d="M475.04,501.8v38.73c50.74,0,100.59-13.36,144.54-38.73"/><path class="st0" d="M185.59,752.35h0s.59-67.89.3-85.16c-.28-17.26-7.23-36-7.23-36,44.94,7.13,34.64-64.37-31.44-23.59-.12.07-.24.14-.36.21h0c25.37,43.95,38.73,93.8,38.73,144.54h0Z"/><path class="st0" d="M330.85,502h0s-59.09,33.44-73.9,42.31c-14.81,8.88-27.56,24.27-27.56,24.27-16.29-42.49-73.07,2.19-4.71,39.02.12.07.24.14.36.21h0c25.37-43.95,61.87-80.44,105.81-105.81h0Z"/><path class="st0" d="M474.67,752.36h0s-58.5-34.46-73.59-42.84-34.8-11.74-34.8-11.74c28.65-35.36-38.43-62.19-36.15,15.44v.41h0c50.74,0,100.59,13.36,144.54,38.73h0Z"/><path class="st0" d="M330.5,501.79h0s-.59,67.89-.3,85.16c.28,17.26,7.23,36,7.23,36-44.94-7.13-34.64,64.37,31.44,23.59l.36-.21h0c-25.37-43.95-38.73-93.8-38.73-144.54h0Z"/><path class="st0" d="M185.23,752.15h0s59.09-33.44,73.9-42.31c14.81-8.88,27.56-24.27,27.56-24.27,16.29,42.49,73.07-2.19,4.71-39.02-.12-.07-.24-.14-.36-.21h0c-25.37,43.95-61.87,80.44-105.81,105.81h0Z"/><path class="st0" d="M330.5,501.79h0s58.5,34.46,73.59,42.84,34.8,11.74,34.8,11.74c-28.65,35.36,38.43,62.19,36.15-15.44v-.41h0c-50.74,0-100.59-13.36-144.54-38.73h0Z"/><path class="st0" d="M474.67,752.36h0s.59-67.89.3-85.16c-.28-17.26-7.23-36-7.23-36,44.94,7.13,34.64-64.37-31.44-23.59l-.36.21h0c25.37,43.95,38.73,93.8,38.73,144.54h0Z"/><path class="st0" d="M619.94,502.01h0s-59.09,33.44-73.9,42.31c-14.81,8.88-27.56,24.27-27.56,24.27-16.29-42.49-73.07,2.19-4.71,39.02l.36.21h0c25.37-43.95,61.87-80.44,105.81-105.81h0Z"/><path class="st0" d="M185.95,752.15h0s58.5,34.46,73.59,42.84,34.8,11.74,34.8,11.74c-28.65,35.36,38.43,62.19,36.15-15.44v-.41h0c-50.74,0-100.59-13.36-144.54-38.73h0Z"/><path class="st0" d="M475.39,752.36h0s-59.09,33.44-73.9,42.31c-14.81,8.88-27.56,24.27-27.56,24.27-16.29-42.49-73.07,2.19-4.71,39.02l.36.21h0c25.37-43.95,61.87-80.44,105.81-105.81h0Z"/><path class="st0" d="M185.95,752.15h0s-59.09,33.44-73.9,42.31c-14.81,8.88-27.56,24.27-27.56,24.27-16.29-42.49-73.07,2.19-4.71,39.02.12.07.24.14.36.21h0c25.37-43.95,61.87-80.44,105.81-105.81h0Z"/><path class="st0" d="M475.04,752.15h0s58.5,34.46,73.59,42.84,34.8,11.74,34.8,11.74c-28.65,35.36,38.43,62.19,36.15-15.44v-.41h0c-50.74,0-100.59-13.36-144.54-38.73h0Z"/><path class="st0" d="M185.95,752.15h0s-.59,67.89-.3,85.16c.28,17.26,7.23,36,7.23,36-44.94-7.13-34.64,64.37,31.44,23.59.12-.07.24-.14.36-.21h0c-25.37-43.95-38.73-93.8-38.73-144.54h0Z"/><path class="st0" d="M475.04,752.15h0s-.59,67.89-.3,85.16c.28,17.26,7.23,36,7.23,36-44.94-7.13-34.64,64.37,31.44,23.59l.36-.21h0c-25.37-43.95-38.73-93.8-38.73-144.54h0Z"/><path class="st0" d="M475.04,752.15h0s59.09-33.44,73.9-42.31c14.81-8.88,27.56-24.27,27.56-24.27,16.29,42.49,73.07-2.19,4.71-39.02l-.36-.21h0c-25.37,43.95-61.87,80.44-105.81,105.81h0Z"/><path class="st0" d="M185.96,752.15h0s-58.5-34.46-73.59-42.84c-15.09-8.38-34.8-11.74-34.8-11.74,28.65-35.36-38.43-62.19-36.15,15.44v.41h0c50.74,0,100.59,13.36,144.54,38.73h0Z"/><path class="st0" d="M41.78,501.58h0s-.59,67.89-.3,85.16c.28,17.26,7.23,36,7.23,36-44.94-7.13-34.64,64.37,31.44,23.59.12-.07.24-.14.36-.21h0c-25.38-43.94-38.73-93.79-38.73-144.54h0Z"/><path class="st0" d="M725.03,607.82c25.37,43.95,38.73,93.8,38.73,144.54h0l-72.27-125.18,33.54-19.37h0Z"/><path class="st0" d="M725.03,607.82c-25.37-43.95-61.87-80.44-105.81-105.81h0l72.27,125.18,33.54-19.37Z"/><path class="st0" d="M619.22,502h0s58.5,34.46,73.59,42.84,34.8,11.74,34.8,11.74c-28.65,35.36,38.43,62.19,36.15-15.44v-.41h0c-50.74,0-100.59-13.36-144.54-38.73h0Z"/><path class="st0" d="M657.95,646.55c25.37,43.95,61.87,80.44,105.81,105.81h0l-72.27-125.18-33.54,19.37Z"/><path class="st0" d="M657.95,646.55c-25.37-43.95-38.73-93.8-38.73-144.54h0l72.27,125.18-33.54,19.37h0Z"/><path class="st0" d="M763.76,752.36c-43.95-25.37-93.8-38.73-144.54-38.73v38.73h0v38.73c50.75,0,100.6-13.36,144.54-38.73h0Z"/><path class="st0" d="M619.22,502.01c43.95,25.37,93.79,38.73,144.54,38.73v-38.73"/><path class="st0" d="M763.76,502.01v38.73c50.74,0,100.59-13.36,144.54-38.73"/><path class="st0" d="M763.4,752.56h0s.59-67.89.3-85.16c-.28-17.26-7.23-36-7.23-36,44.94,7.13,34.64-64.37-31.44-23.59l-.36.21h0c25.37,43.95,38.73,93.8,38.73,144.54h0Z"/><path class="st0" d="M763.04,752.35h0s59.09-33.44,73.9-42.31c14.81-8.88,27.56-24.27,27.56-24.27,16.29,42.49,73.07-2.19,4.71-39.02l-.36-.21h0c-25.37,43.95-61.87,80.44-105.81,105.81h0Z"/><path class="st0" d="M763.76,752.36h0s58.5,34.46,73.59,42.84,34.8,11.74,34.8,11.74c-28.65,35.36,38.43,62.19,36.15-15.44v-.41h0c-50.74,0-100.59-13.36-144.54-38.73h0Z"/><path class="st0" d="M763.76,752.36h0s-59.09,33.44-73.9,42.31c-14.81,8.88-27.56,24.27-27.56,24.27-16.29-42.49-73.07,2.19-4.71,39.02l.36.21h0c25.37-43.95,61.87-80.44,105.81-105.81h0Z"/><path class="st0" d="M763.76,752.36h0s-.59,67.89-.3,85.16c.28,17.26,7.23,36,7.23,36-44.94-7.13-34.64,64.37,31.44,23.59l.36-.21h0c-25.37-43.95-38.73-93.8-38.73-144.54h0Z"/><path class="st0" d="M763.76,752.36h0s-58.5-34.46-73.59-42.84-34.8-11.74-34.8-11.74c28.65-35.36-38.43-62.19-36.15,15.44v.41h0c50.74,0,100.59,13.36,144.54,38.73h0Z"/><path class="st0" d="M619.58,501.79h0s-.59,67.89-.3,85.16c.28,17.26,7.23,36,7.23,36-44.94-7.13-34.64,64.37,31.44,23.59l.36-.21h0c-25.37-43.95-38.73-93.8-38.73-144.54h0Z"/><path class="st0" d="M41.42,501.37h0s.59-67.89.3-85.16c-.28-17.26-7.23-36-7.23-36,44.94,7.13,34.64-64.37-31.44-23.59-.12.07-.24.14-.36.21h0c25.38,43.95,38.73,93.8,38.73,144.54h0Z"/></symbol></defs><use href="#tile" x="-395.24249999999995" y="-501.405" width="501.405" height="501.405"/><use href="#tile" x="-106.1625" y="-501.405" width="501.405" height="501.405"/><use href="#tile" x="182.9175" y="-501.405" width="501.405" height="501.405"/><use href="#tile" x="-395.24249999999995" y="0" width="501.405" height="501.405"/><use href="#tile" x="-106.1625" y="0" width="501.405" height="501.405"/><use href="#tile" x="182.9175" y="0" width="501.405" height="501.405"/><use href="#tile" x="-395.24249999999995" y="501.405" width="501.405" height="501.405"/><use href="#tile" x="-106.1625" y="501.405" width="501.405" height="501.405"/><use href="#tile" x="182.9175" y="501.405" width="501.405" height="501.405"/></svg>