<?xml version="1.0" encoding="UTF-8"?>
<svg xmlns="http://www.w3.org/2000/svg" version="1.1" viewBox="0 0 149.66 258.89">
  <!-- Generator: Adobe Illustrator 30.6.0, SVG Export Plug-In . SVG Version: 2.1.4 Build 109)  -->
  <defs>
    <style>
      .st0 {
        fill: #7d1a1a;
      }
    </style>
  </defs>
  <g id="Top_Large_Outline" shape-rendering="geometricPrecision">
    <polygon class="st0" points="3.68 87.73 21.56 98.04 24.29 93.31 3.68 87.73"/>
    <polygon class="st0" points="25.97 95.6 25.05 93.99 22.42 98.54 30.15 102.99 25.97 95.6"/>
    <polygon class="st0" points="68.02 103.65 74.05 93.36 51.61 87.29 68.02 103.65"/>
    <polygon class="st0" points="74.31 92.39 74.3 80.08 51.82 86.31 74.31 92.39"/>
    <polygon class="st0" points="74.3 68.6 69.02 68.61 74.3 77.58 74.3 68.6"/>
    <polygon class="st0" points="48.22 87.29 25.84 93.35 31.64 103.59 48.22 87.29"/>
    <polygon class="st0" points="51.64 85.32 74.04 79.11 68.07 68.97 51.64 85.32"/>
    <polygon class="st0" points="74.32 104.04 74.31 94.89 68.95 104.04 74.32 104.04"/>
    <polygon class="st0" points="57.09 110.88 73.85 127.75 67.63 104.8 50.9 88 57.09 110.88"/>
    <polygon class="st0" points="31.69 155.21 25.89 165.45 48.27 171.51 31.69 155.21"/>
    <polygon class="st0" points="19.29 154.74 20.4 156.67 21.92 159.32 29.7 154.83 19.29 154.74"/>
    <polygon class="st0" points="30.23 155.75 22.46 160.24 25.1 164.81 30.23 155.75"/>
    <polygon class="st0" points="73.9 131.05 57.14 147.92 50.95 170.8 67.68 154 73.9 131.05"/>
    <polygon class="st0" points="19.32 190.27 24.29 190.29 30.9 190.32 25.07 180.32 19.32 190.27"/>
    <polygon class="st0" points="24.34 165.49 21.59 160.74 3.71 171.08 24.34 165.49"/>
    <polygon class="st0" points="107.21 25 123.81 41.33 120.54 29.01 117.85 18.86 107.21 25"/>
    <polygon class="st0" points="100.67 35.93 123.05 41.98 106.47 25.68 100.67 35.93"/>
    <polygon class="st0" points="124.75 44.9 118.64 67.4 124.7 67.42 130.65 67.45 124.75 44.9"/>
    <polygon class="st0" points="44.71 154.57 43.05 148.34 32.39 154.5 49.03 170.85 44.71 154.57"/>
    <polygon class="st0" points="99.88 35.28 100.8 33.67 104.98 26.29 97.26 30.74 99.88 35.28"/>
    <polygon class="st0" points="78.51 41.55 99.12 35.96 96.39 31.24 78.51 41.55"/>
    <polygon class="st0" points="123.08 125.27 117.76 105.2 107.25 111.28 123.69 127.63 123.08 125.27"/>
    <polygon class="st0" points="19.29 103.98 29.63 103.89 21.91 99.43 20.4 102.04 19.29 103.98"/>
    <polygon class="st0" points="130.44 68.45 125.64 68.43 118.86 68.4 121.42 72.8 124.69 78.4 130.44 68.45"/>
    <polygon class="st0" points="119.83 72.05 117.88 68.71 101.46 85.25 123.93 79.09 119.83 72.05"/>
    <polygon class="st0" points="95.09 27.31 96.6 29.93 104.31 25.47 93.97 25.38 95.09 27.31"/>
    <polygon class="st0" points="107.18 147.35 117.85 153.5 123.69 130.92 107.18 147.35"/>
    <polygon class="st0" points="82.02 67.76 98.83 84.57 92.79 61.5 75.89 44.69 82.02 67.76"/>
    <polygon class="st0" points="75.42 67.52 78.98 67.52 80.9 67.52 75.43 46.87 75.42 67.52"/>
    <polygon class="st0" points="93.13 60.43 96.11 55.27 99.09 50.1 76.62 44.01 93.13 60.43"/>
    <polygon class="st0" points="77.87 40.76 95.73 30.43 95.51 30.05 93.01 25.71 77.87 40.76"/>
    <polygon class="st0" points="92.67 47.33 99.85 49.27 122.85 42.97 99.89 36.81 76.84 43.04 92.67 47.33"/>
    <polygon class="st0" points="68.82 18.66 74.78 41.17 80.74 18.66 68.82 18.66"/>
    <polygon class="st0" points="26.02 127.72 42.49 111.33 31.85 105.18 28.5 118.14 26.02 127.72"/>
    <polygon class="st0" points="28.5 140.58 31.86 153.59 42.53 147.43 26.02 131 28.5 140.58"/>
    <polygon class="st0" points="19.13 153.74 23.76 153.78 30.9 153.84 25.07 131.33 19.13 153.74"/>
    <polygon class="st0" points="3.17 170.13 21.06 159.82 20.83 159.41 18.32 155.07 3.17 170.13"/>
    <polygon class="st0" points="30.85 68.48 24.24 68.51 19.27 68.53 25.02 78.49 30.85 68.48"/>
    <polygon class="st0" points="48.25 85.33 31.83 68.79 26.81 77.4 25.78 79.17 36.55 82.13 48.25 85.33"/>
    <polygon class="st0" points="19.06 67.53 25.12 67.51 31.07 67.48 24.96 44.99 19.06 67.53"/>
    <polygon class="st0" points="17.88 176.85 25.07 178.8 46.74 172.86 48.07 172.5 25.11 166.34 2.06 172.56 17.88 176.85"/>
    <polygon class="st0" points="49 174.19 32.22 191.08 25.98 214.06 42.76 197.16 49 174.19"/>
    <polygon class="st0" points="55.66 197.97 50.85 197.95 44.08 197.93 49.91 207.93 55.66 197.97"/>
    <polygon class="st0" points="49.97 174.43 43.86 196.93 49.92 196.95 55.87 196.98 49.97 174.43"/>
    <polygon class="st0" points="50.45 148.12 44.02 148.08 49.6 169.11 49.98 170.54 55.95 148.16 50.45 148.12"/>
    <polygon class="st0" points="31.12 191.32 25.17 191.3 19.11 191.27 25.01 213.82 31.12 191.32"/>
    <polygon class="st0" points="12.68 184.32 18.35 189.96 21.33 184.79 24.31 179.63 5.85 174.63 1.84 173.54 12.68 184.32"/>
    <polygon class="st0" points="32.17 67.72 48.95 84.62 42.71 61.64 25.93 44.74 32.17 67.72"/>
    <polygon class="st0" points="48.11 206.84 43.1 198.24 26.68 214.78 49.15 208.62 48.11 206.84"/>
    <polygon class="st0" points="49.94 123.28 27.03 129.36 49.94 135.44 72.93 129.36 49.94 123.28"/>
    <polygon class="st0" points="53.12 116.24 55.78 111.65 45.28 111.72 53.12 116.24"/>
    <polygon class="st0" points="50.88 122.14 70.83 127.71 53.45 117.66 50.88 122.14"/>
    <polygon class="st0" points="43.05 60.56 47.8 52.42 49.1 50.19 26.63 44.03 43.05 60.56"/>
    <polygon class="st0" points="49.14 122.36 48.42 121.09 43.24 111.99 26.76 128.39 49.14 122.36"/>
    <polygon class="st0" points="49.94 136.96 44.69 146.19 52.62 141.62 49.94 136.96"/>
    <polygon class="st0" points="48.98 87.95 32.37 104.27 43.02 110.41 45.71 100.27 48.98 87.95"/>
    <polygon class="st0" points="56.57 112.27 53.99 116.74 71.38 126.76 56.57 112.27"/>
    <polygon class="st0" points="49.94 121.75 52.59 117.16 44.75 112.63 49.94 121.75"/>
    <polygon class="st0" points="49.87 61.85 43.81 61.88 49.92 84.37 55.82 61.83 49.87 61.85"/>
    <polygon class="st0" points="43.97 110.72 50.4 110.68 55.9 110.65 49.93 88.26 43.97 110.72"/>
    <polygon class="st0" points="44.03 60.88 50.81 60.85 55.61 60.83 49.86 50.87 44.03 60.88"/>
    <polygon class="st0" points="71.19 130.91 50.88 136.58 53.49 141.12 71.19 130.91"/>
    <polygon class="st0" points="53.14 142.51 45.21 147.09 55.82 147.15 53.14 142.51"/>
    <polygon class="st0" points="49.14 136.36 26.76 130.33 43.24 146.72 48.42 137.62 49.14 136.36"/>
    <polygon class="st0" points="71.7 131.78 54 142.01 56.62 146.54 71.7 131.78"/>
    <polygon class="st0" points="48.3 173.47 25.83 179.63 26.86 181.41 31.88 190.01 48.3 173.47"/>
    <polygon class="st0" points="120.01 154.75 127.79 159.23 130.42 154.66 120.01 154.75"/>
    <polygon class="st0" points="118.07 103.51 123.87 93.26 101.49 87.21 118.07 103.51"/>
    <polygon class="st0" points="123.65 163.2 124.56 164.81 127.2 160.24 119.43 155.75 123.65 163.2"/>
    <polygon class="st0" points="124.5 94.19 119.57 102.9 127.29 98.45 124.66 93.91 124.5 94.19"/>
    <polygon class="st0" points="99.77 135.36 122.69 129.28 99.77 123.19 76.79 129.28 99.77 135.36"/>
    <polygon class="st0" points="130.42 103.89 127.8 99.34 120.09 103.8 130.42 103.89"/>
    <polygon class="st0" points="127.95 13.04 120.11 17.56 130.61 17.63 127.95 13.04"/>
    <polygon class="st0" points="125.42 93.23 128.15 97.95 146.03 87.64 125.42 93.23"/>
    <polygon class="st0" points="100.58 136.27 101.3 137.54 106.47 146.64 122.95 130.25 100.58 136.27"/>
    <polygon class="st0" points="78.88 127.63 98.84 122.05 96.26 117.58 78.88 127.63"/>
    <polygon class="st0" points="96.59 116.15 104.43 111.63 93.94 111.56 96.59 116.15"/>
    <polygon class="st0" points="78.33 126.68 95.72 116.65 93.14 112.18 78.33 126.68"/>
    <polygon class="st0" points="101.4 171.51 123.78 165.45 117.98 155.21 101.4 171.51"/>
    <polygon class="st0" points="104.96 112.55 97.12 117.08 99.77 121.67 104.96 112.55"/>
    <polygon class="st0" points="124.76 41.02 130.73 18.63 125.23 18.59 118.8 18.55 124.76 41.02"/>
    <polygon class="st0" points="100.64 170.85 117.27 154.5 106.61 148.34 103.9 158.53 100.64 170.85"/>
    <polygon class="st0" points="145.95 171.08 128.07 160.74 125.33 165.49 145.95 171.08"/>
    <polygon class="st0" points="25.38 219.14 25 217.7 19.03 240.09 24.53 240.13 30.96 240.17 25.38 219.14"/>
    <polygon class="st0" points="124.67 217.7 118.71 240.17 125.13 240.13 130.63 240.09 124.67 217.7"/>
    <polygon class="st0" points="127.86 245.68 130.51 241.09 120.01 241.16 127.86 245.68"/>
    <polygon class="st0" points="148.78 222.8 126.35 216.73 142.75 233.09 148.78 222.8"/>
    <polygon class="st0" points="149.66 135.37 149.66 123.18 126.59 129.28 149.66 135.37"/>
    <polygon class="st0" points="131.65 191.03 125.61 214.1 142.43 197.29 148.56 174.22 131.65 191.03"/>
    <polygon class="st0" points="140 210.99 148.78 208.56 142.8 198.41 126.37 214.76 140 210.99"/>
    <polygon class="st0" points="21.81 245.68 29.65 241.16 19.15 241.09 21.81 245.68"/>
    <polygon class="st0" points=".83 36 23.27 42.07 6.86 25.71 .83 36"/>
    <polygon class="st0" points="117.79 190.01 122.8 181.41 123.84 179.63 101.36 173.47 117.79 190.01"/>
    <polygon class="st0" points="21.76 13.12 19.1 17.71 29.6 17.64 21.76 13.12"/>
    <polygon class="st0" points="14.52 46.46 .84 50.25 6.81 60.39 23.25 44.04 14.52 46.46"/>
    <polygon class="st0" points="1.05 170.82 17.97 153.98 24.12 131.01 7.16 147.78 2.81 164.18 1.05 170.82"/>
    <polygon class="st0" points="17.96 67.78 24 44.7 7.19 61.51 1.05 84.58 17.96 67.78"/>
    <polygon class="st0" points="15.8 132.33 .85 136.28 6.82 146.7 23.39 130.32 15.8 132.33"/>
    <polygon class="st0" points="24.95 41.1 30.91 18.64 24.43 18.68 18.98 18.71 24.95 41.1"/>
    <polygon class="st0" points="75.35 190.2 79.83 190.2 80.6 190.2 75.35 181.29 75.35 190.2"/>
    <polygon class="st0" points="75.36 166.42 75.35 178.71 97.79 172.5 75.36 166.42"/>
    <polygon class="st0" points="81.59 155.15 75.57 165.44 98 171.52 81.59 155.15"/>
    <polygon class="st0" points="97.98 173.48 75.57 179.69 81.54 189.84 97.98 173.48"/>
    <polygon class="st0" points="75.38 125.39 80.63 104.96 78.99 104.96 75.39 104.96 75.38 125.39"/>
    <polygon class="st0" points="92.52 147.92 75.76 131.05 81.99 154 98.71 170.8 92.52 147.92"/>
    <polygon class="st0" points="75.38 133.69 75.37 153.76 78.64 153.76 80.53 153.76 75.38 133.69"/>
    <polygon class="st0" points="75.36 163.82 80.67 154.76 79.79 154.76 75.37 154.76 75.36 163.82"/>
    <polygon class="st0" points="75.39 103.96 80.76 103.96 75.4 94.8 75.39 103.96"/>
    <polygon class="st0" points="130.56 191.27 124.5 191.3 118.54 191.32 124.65 213.82 130.56 191.27"/>
    <polygon class="st0" points="117.44 191.08 100.66 174.19 106.91 197.16 123.69 214.06 117.44 191.08"/>
    <polygon class="st0" points="118.76 190.32 125.37 190.29 130.34 190.27 124.59 180.32 118.76 190.32"/>
    <polygon class="st0" points="106.56 198.24 101.81 206.39 100.51 208.62 122.99 214.78 106.56 198.24"/>
    <polygon class="st0" points="105.64 148.08 99.22 148.12 93.72 148.16 99.68 170.54 105.64 148.08"/>
    <polygon class="st0" points="99.75 196.95 105.81 196.93 99.69 174.43 93.79 196.98 99.75 196.95"/>
    <polygon class="st0" points="105.59 197.93 98.81 197.95 94.01 197.97 99.76 207.93 105.59 197.93"/>
    <polygon class="st0" points="99.31 110.6 105.58 110.64 99.78 88.2 93.81 110.56 99.31 110.6"/>
    <polygon class="st0" points="101.3 121.01 100.58 122.28 122.88 128.28 106.38 112.07 101.3 121.01"/>
    <polygon class="st0" points="75.4 92.31 97.89 86.22 75.41 79.99 75.4 92.31"/>
    <polygon class="st0" points="117.54 67.64 123.78 44.66 107 61.55 100.76 84.53 117.54 67.64"/>
    <polygon class="st0" points="101.65 51.88 106.66 60.48 123.08 43.94 100.61 50.1 101.65 51.88"/>
    <polygon class="st0" points="99.77 136.88 97.09 141.53 105.02 146.1 99.77 136.88"/>
    <polygon class="st0" points="95.66 142.01 77.97 131.78 93.04 146.54 95.66 142.01"/>
    <polygon class="st0" points="96.53 142.51 93.84 147.15 104.45 147.09 96.53 142.51"/>
    <polygon class="st0" points="100.74 87.89 106.7 110.38 117.24 104.3 100.74 87.89"/>
    <polygon class="st0" points="94.11 60.74 99.07 60.76 105.68 60.79 99.85 50.79 94.11 60.74"/>
    <polygon class="st0" points="75.41 77.5 80.69 68.52 75.41 68.52 75.41 77.5"/>
    <polygon class="st0" points="98.08 85.24 81.64 68.88 75.67 79.03 89.35 82.82 98.08 85.24"/>
    <polygon class="st0" points="81.69 103.56 98.1 87.2 75.66 93.27 81.69 103.56"/>
    <polygon class="st0" points="75.86 127.67 92.62 110.8 98.81 87.92 82.08 104.72 75.86 127.67"/>
    <polygon class="st0" points="99.79 84.29 105.9 61.79 99.95 61.77 93.89 61.74 99.79 84.29"/>
    <polygon class="st0" points="98.84 136.5 78.52 130.82 96.22 141.03 98.84 136.5"/>
    <polygon class="st0" points=".61 233.48 5.98 233.49 .62 224.33 .61 233.48"/>
    <polygon class="st0" points="4.21 234.49 .61 234.48 .6 254.92 5.84 234.49 4.21 234.49"/>
    <polygon class="st0" points="0 136.8 0 170.89 6.17 147.59 0 136.8"/>
    <polygon class="st0" points="24.02 217.44 7.3 234.25 1.07 257.19 17.84 240.33 24.02 217.44"/>
    <polygon class="st0" points="18.38 241.75 18.36 241.71 3.55 256.21 20.94 246.18 18.38 241.75"/>
    <polygon class="st0" points="0 135.47 23.12 129.36 0 123.25 0 135.47"/>
    <polygon class="st0" points="5.86 60.75 .58 51.78 .58 60.76 5.86 60.75"/>
    <polygon class="st0" points="24.12 127.71 17.97 104.74 1.05 87.9 7.16 110.94 24.12 127.71"/>
    <polygon class="st0" points="15.8 126.39 23.39 128.4 6.82 112.01 .85 122.44 15.8 126.39"/>
    <polygon class="st0" points="93.81 24.38 98.45 24.42 105.58 24.48 99.76 1.97 93.81 24.38"/>
    <polygon class="st0" points="55.8 234.42 51.17 234.38 44.03 234.32 49.86 256.83 55.8 234.42"/>
    <polygon class="st0" points="71.73 225.43 73.87 217.34 56.96 234.19 50.81 257.15 67.77 240.39 71.73 225.43"/>
    <polygon class="st0" points="74.07 251.89 68.11 241.46 51.54 257.84 58.74 255.94 74.07 251.89"/>
    <polygon class="st0" points="39.61 249.32 31.69 241.44 26.51 250.54 25.79 251.8 48.17 257.83 39.61 249.32"/>
    <polygon class="st0" points="30.18 242.08 22.34 246.61 24.99 251.2 30.18 242.08"/>
    <polygon class="st0" points="23.73 251.02 21.47 247.11 4.09 257.15 24.05 251.58 23.73 251.02"/>
    <polygon class="st0" points="78.81 244.23 80.58 241.14 69.08 241.14 70.32 243.3 74.83 251.2 78.81 244.23"/>
    <polygon class="st0" points="46.43 247.58 43.08 234.62 32.44 240.77 48.91 257.16 46.43 247.58"/>
    <polygon class="st0" points="43.03 24.18 46.38 11.22 48.86 1.64 32.39 18.03 43.03 24.18"/>
    <polygon class="st0" points="51.49 .96 68.06 17.35 74.03 6.92 59.08 2.97 51.49 .96"/>
    <polygon class="st0" points="43.98 24.48 51.12 24.42 55.76 24.38 49.81 1.97 43.98 24.48"/>
    <polygon class="st0" points="56.91 24.62 73.83 41.46 67.72 18.42 50.76 1.65 56.91 24.62"/>
    <polygon class="st0" points="81.84 18.42 75.74 41.46 92.65 24.62 98.8 1.65 94.74 5.66 81.84 18.42"/>
    <polygon class="st0" points="75.54 6.92 78.52 12.13 81.5 17.35 93.35 5.64 98.08 .96 90.88 2.86 75.54 6.92"/>
    <polygon class="st0" points="70.8 14.57 69.04 17.66 80.53 17.66 75.73 9.27 74.78 7.61 70.8 14.57"/>
    <polygon class="st0" points="23.06 43.05 .57 36.97 .58 49.28 23.06 43.05"/>
    <polygon class="st0" points=".56 24.32 4.16 24.32 5.8 24.32 .55 3.88 .56 24.32"/>
    <polygon class="st0" points="5.93 25.32 .56 25.32 .57 34.47 5.93 25.32"/>
    <polygon class="st0" points="7.25 24.56 23.98 41.36 17.79 18.47 1.03 1.61 7.25 24.56"/>
    <polygon class="st0" points="18.31 17.09 18.33 17.05 20.89 12.62 3.5 2.6 18.31 17.09"/>
    <polygon class="st0" points="26.46 8.26 31.64 17.36 48.12 .97 25.74 7 26.46 8.26"/>
    <polygon class="st0" points="22.29 12.2 30.13 16.73 24.94 7.61 22.29 12.2"/>
    <polygon class="st0" points="21.43 11.7 24 7.22 4.05 1.65 21.43 11.7"/>
    <polygon class="st0" points="6.07 61.75 4.15 61.75 .58 61.76 .6 82.41 6.07 61.75"/>
    <polygon class="st0" points="149.16 3.8 143.92 24.23 145.8 24.23 149.15 24.23 149.16 3.8"/>
    <polygon class="st0" points="149.15 25.23 144.65 25.23 143.78 25.23 149.14 34.39 149.15 25.23"/>
    <polygon class="st0" points="149.14 36.88 126.65 42.97 149.14 49.2 149.14 36.88"/>
    <polygon class="st0" points="124.62 6.08 147.61 0 101.71 0 124.62 6.08"/>
    <polygon class="st0" points="131.74 104.66 125.59 127.62 142.56 110.86 148.66 87.81 131.74 104.66"/>
    <polygon class="st0" points="149.13 51.69 143.85 60.67 149.13 60.67 149.13 51.69"/>
    <polygon class="st0" points="74.78 6.08 97.81 0 51.76 0 74.78 6.08"/>
    <polygon class="st0" points="126.32 128.31 133.91 126.31 148.86 122.36 142.89 111.93 126.32 128.31"/>
    <polygon class="st0" points="149.13 61.67 145.57 61.67 143.65 61.67 149.12 82.32 149.13 61.67"/>
    <polygon class="st0" points="24.94 6.08 47.85 0 1.95 0 24.94 6.08"/>
    <polygon class="st0" points="149.66 121.75 149.66 87.93 143.54 111.05 149.66 121.75"/>
    <polygon class="st0" points="124.67 252.72 101.44 258.89 147.98 258.89 124.67 252.72"/>
    <polygon class="st0" points="143.54 147.5 149.66 170.62 149.66 136.8 143.54 147.5"/>
    <polygon class="st0" points="74.83 252.72 51.49 258.89 98.17 258.89 74.83 252.72"/>
    <polygon class="st0" points="6.17 111.13 0 87.83 0 121.92 6.17 111.13"/>
    <polygon class="st0" points="24.99 252.72 1.68 258.89 48.22 258.89 24.99 252.72"/>
    <polygon class="st0" points="142.36 234.25 125.64 217.44 131.83 240.33 148.59 257.19 142.36 234.25"/>
    <polygon class="st0" points="127.32 246.61 119.49 242.08 124.68 251.2 127.32 246.61"/>
    <polygon class="st0" points="128.19 247.11 125.61 251.58 145.57 257.15 128.19 247.11"/>
    <polygon class="st0" points="123.15 250.54 117.97 241.44 101.5 257.83 123.87 251.8 123.15 250.54"/>
    <polygon class="st0" points="106.59 234.62 103.23 247.58 100.75 257.16 117.23 240.77 106.59 234.62"/>
    <polygon class="st0" points="92.7 234.19 75.79 217.34 77.55 223.98 81.89 240.39 98.85 257.15 92.7 234.19"/>
    <polygon class="st0" points="105.63 234.32 98.49 234.38 93.86 234.42 99.8 256.83 105.63 234.32"/>
    <polygon class="st0" points="131.31 241.71 131.28 241.75 128.72 246.18 146.11 256.21 131.31 241.71"/>
    <polygon class="st0" points="125.59 130.93 131.74 153.89 148.66 170.74 142.56 147.69 125.59 130.93"/>
    <polygon class="st0" points="143.55 197.05 145.73 197.05 149.03 197.05 149.02 176.4 143.55 197.05"/>
    <polygon class="st0" points="133.91 132.24 126.32 130.24 142.89 146.62 148.86 136.19 133.91 132.24"/>
    <polygon class="st0" points="144.52 198.05 143.75 198.05 149.04 207.03 149.03 198.05 144.52 198.05"/>
    <polygon class="st0" points="126.56 215.75 149.04 221.84 149.04 209.52 126.56 215.75"/>
    <polygon class="st0" points="149.05 234.48 145.45 234.49 143.82 234.49 149.06 254.92 149.05 234.48"/>
    <polygon class="st0" points="143.68 233.49 149.05 233.48 149.05 224.33 143.68 233.49"/>
    <polygon class="st0" points="98.13 257.84 81.55 241.46 75.59 251.89 90.54 255.84 98.13 257.84"/>
    <polygon class="st0" points="53.13 76.05 50.88 84.65 67.69 67.85 73.83 44.78 56.92 61.58 53.13 76.05"/>
    <polygon class="st0" points="103.18 11.22 106.54 24.18 117.18 18.03 100.7 1.64 103.18 11.22"/>
    <polygon class="st0" points=".64 176.4 .63 197.05 3.94 197.05 6.11 197.05 .64 176.4"/>
    <polygon class="st0" points="23.29 214.76 6.86 198.41 .89 208.56 23.29 214.76"/>
    <polygon class="st0" points="30.9 104.88 23.76 104.94 19.13 104.98 25.07 127.39 30.9 104.88"/>
    <polygon class="st0" points=".62 221.84 23.11 215.75 .62 209.52 .62 221.84"/>
    <polygon class="st0" points="20.83 99.3 21.04 98.93 3.18 88.6 18.32 103.65 20.83 99.3"/>
    <polygon class="st0" points="21.28 74.01 18.3 68.85 1.79 85.26 24.26 79.17 21.28 74.01"/>
    <polygon class="st0" points="48.02 86.31 36.19 83.06 25.02 80 17.64 82 2.01 86.24 25.06 92.47 48.02 86.31"/>
    <polygon class="st0" points="30.21 25.16 25.9 41.41 42.51 25.09 31.86 18.95 30.21 25.16"/>
    <polygon class="st0" points="71.25 217.17 50.64 222.76 53.37 227.48 71.25 217.17"/>
    <polygon class="st0" points="54.45 231.36 53.02 228.87 45.3 233.33 55.64 233.42 54.45 231.36"/>
    <polygon class="st0" points="49.88 223.43 49.33 224.39 44.78 232.43 52.5 227.98 49.88 223.43"/>
    <polygon class="st0" points="49.09 222.79 26.71 216.74 43.29 233.04 49.09 222.79"/>
    <polygon class="st0" points="23.31 216.73 .88 222.8 6.91 233.09 23.31 216.73"/>
    <polygon class="st0" points="23.72 212.83 18.01 191.03 1.1 174.22 7.23 197.29 24.05 214.1 23.72 212.83"/>
    <polygon class="st0" points="42.55 233.72 25.95 217.39 30.27 233.67 31.91 239.86 42.55 233.72"/>
    <polygon class="st0" points="49.67 35.09 49.83 35.37 52.46 30.82 44.73 26.37 49.67 35.09"/>
    <polygon class="st0" points="26.66 42.07 49.04 36.01 43.24 25.77 26.66 42.07"/>
    <polygon class="st0" points="74.32 190.2 74.31 181.29 69.07 190.2 69.83 190.2 74.32 190.2"/>
    <polygon class="st0" points="74.32 105.04 70.72 105.04 69.08 105.04 74.33 125.48 74.32 105.04"/>
    <polygon class="st0" points="74.09 179.69 65.32 177.26 51.68 173.48 68.12 189.84 74.09 179.69"/>
    <polygon class="st0" points="69 154.76 74.3 163.81 74.3 154.76 69.87 154.76 69 154.76"/>
    <polygon class="st0" points="68.07 155.15 51.66 171.52 74.1 165.44 68.07 155.15"/>
    <polygon class="st0" points="74.31 178.71 74.3 166.42 51.87 172.5 74.31 178.71"/>
    <polygon class="st0" points="70.74 67.61 74.3 67.6 74.29 46.95 68.81 67.61 70.74 67.61"/>
    <polygon class="st0" points="53.84 30.43 71.7 40.76 56.56 25.71 53.84 30.43"/>
    <polygon class="st0" points="52.97 29.93 55.59 25.38 45.25 25.47 52.97 29.93"/>
    <polygon class="st0" points="71.75 218.04 53.88 228.37 56.61 233.1 71.75 218.04"/>
    <polygon class="st0" points="50.59 36.05 71.2 41.63 53.32 31.32 50.59 36.05"/>
    <polygon class="st0" points="53.6 55.35 56.58 60.51 73.09 44.1 50.62 50.19 53.6 55.35"/>
    <polygon class="st0" points="69.13 153.76 71.02 153.76 74.3 153.76 74.29 133.69 69.13 153.76"/>
    <polygon class="st0" points="26.86 43.05 28.71 43.56 49.86 49.36 57.24 47.36 72.87 43.12 49.82 36.89 26.86 43.05"/>
    <polygon class="st0" points=".63 207.03 5.91 198.05 5.14 198.05 .63 198.05 .63 207.03"/>
    <polygon class="st0" points="131.88 81.86 124.69 79.92 104.48 85.46 101.69 86.22 124.65 92.38 147.7 86.15 131.88 81.86"/>
    <polygon class="st0" points="131.41 68.76 128.43 73.92 125.45 79.09 147.92 85.18 131.41 68.76"/>
    <polygon class="st0" points="146.53 88.51 128.67 98.84 131.39 103.57 146.53 88.51"/>
    <polygon class="st0" points="118.81 153.76 125.95 153.7 130.59 153.66 124.64 131.25 118.81 153.76"/>
    <polygon class="st0" points="128.65 159.73 146.54 170.05 131.39 154.98 128.65 159.73"/>
    <polygon class="st0" points="125.95 104.85 118.81 104.79 124.05 125.01 124.65 127.27 130.59 104.89 125.95 104.85"/>
    <polygon class="st0" points="142.53 61.43 125.71 44.62 131.75 67.69 148.66 84.5 142.53 61.43"/>
    <polygon class="st0" points="125.88 7.78 128.14 11.7 145.52 1.65 125.56 7.22 125.88 7.78"/>
    <polygon class="st0" points="101.6 172.5 103.44 173 124.6 178.8 131.97 176.8 147.6 172.56 124.56 166.34 101.6 172.5"/>
    <polygon class="st0" points="119.44 16.73 127.27 12.2 124.63 7.61 119.44 16.73"/>
    <polygon class="st0" points="126.47 43.95 142.9 60.31 148.87 50.16 126.47 43.95"/>
    <polygon class="st0" points="110.01 9.49 117.92 17.36 123.1 8.26 123.82 7 101.45 .97 110.01 9.49"/>
    <polygon class="st0" points="57.09 211.39 49.91 209.45 28.24 215.39 26.91 215.75 49.87 221.91 72.92 215.68 57.09 211.39"/>
    <polygon class="st0" points="142.85 25.63 126.45 41.99 148.88 35.92 142.85 25.63"/>
    <polygon class="st0" points="131.92 18.39 125.74 41.28 142.46 24.47 148.69 1.52 131.92 18.39"/>
    <polygon class="st0" points="131.38 16.97 131.41 17.01 146.21 2.51 128.82 12.54 131.38 16.97"/>
    <polygon class="st0" points="80.79 240.14 74.83 217.64 68.87 240.14 80.79 240.14"/>
    <polygon class="st0" points="96.02 203.45 93.04 198.29 76.52 214.71 99 208.61 96.02 203.45"/>
    <polygon class="st0" points="98.73 174.15 81.92 190.95 75.79 214.03 92.69 197.22 98.73 174.15"/>
    <polygon class="st0" points="78.62 191.2 75.35 191.2 75.33 211.83 80.8 191.2 78.62 191.2"/>
    <polygon class="st0" points="56.63 198.29 53.65 203.45 50.67 208.61 73.14 214.71 56.63 198.29"/>
    <polygon class="st0" points="67.74 190.95 50.93 174.15 56.97 197.22 60.27 200.5 73.87 214.03 67.74 190.95"/>
    <polygon class="st0" points="74.32 191.2 71.04 191.2 68.86 191.2 74.33 211.83 74.32 191.2"/>
    <polygon class="st0" points="95.78 228.37 77.91 218.04 93.05 233.1 95.78 228.37"/>
    <polygon class="st0" points="100.92 225.44 99.79 223.43 97.16 227.98 104.88 232.43 100.92 225.44"/>
    <polygon class="st0" points="122.95 216.74 100.57 222.79 106.37 233.04 122.95 216.74"/>
    <polygon class="st0" points="120.44 229.71 123.71 217.39 107.11 233.72 117.75 239.86 120.44 229.71"/>
    <polygon class="st0" points="99.02 222.76 78.42 217.17 96.29 227.48 99.02 222.76"/>
    <polygon class="st0" points="96.64 228.87 94.02 233.42 104.36 233.33 96.64 228.87"/>
    <polygon class="st0" points="122.75 215.75 120.91 215.25 99.75 209.45 92.38 211.44 76.75 215.68 99.79 221.91 122.75 215.75"/>
    <polygon class="st0" points="128.33 184.79 131.31 189.96 147.83 173.54 125.35 179.63 128.33 184.79"/>
  </g>
</svg>