<?xml version="1.0" encoding="UTF-8"?><svg id="Layer_1" xmlns="http://www.w3.org/2000/svg" viewBox="0 0 363.54 329.46"><path d="M236.58,110.21l58.44-49.03c-3.16-2.63-4.6-2.13-4.6-4.32,0-2.33,3.4-3.22-1.43-4.66-2.49-.74-3.61-1.43-4.76-1.82l-49.04,58.44c.47.46.93.92,1.39,1.39Z"/><path d="M146.76,235.12l-12.04,20.85c.29.89.64,2.06,1.34,4.85.83,3.31.88,4.83,1.22,6.07l11.27-30.95c-.6-.27-1.2-.53-1.8-.81Z"/><path d="M245.21,120.74l76.74-44.31c-.9-1.23-2.11-2.48-5.03-1.85-4.12.9-5.01,1.61-7.34.9-1.15-.35-3.62-3.34-5.95-6.33l-59.56,49.98c.38.53.77,1.06,1.14,1.6Z"/><path d="M186.49,65.83c.46,1.41.74,2.7,0,3.49v17.54c.65.05,1.31.08,1.96.15l4.92-27.91c-1.58.1-4.49.13-5.21.27-.4.08-1.1.35-1.68.86v5.6Z"/><path d="M214.58,94.35l33.28-57.64c-.58-.62-1.23-.78-4.17-.44-4.66.54-4.83.36-6.45.72-1.61.36-2.87.72-3.94,1.97-.89,1.04.8,2.2-1.58,2.57l-18.93,52.01c.6.27,1.2.53,1.8.81Z"/><path d="M316.74,147.29c-.15-.21-.27-.39-.38-.57l-57.98,10.22c.06.65.1,1.31.15,1.96h53.83c.89-1.87,1.56-2.65,2.58-4.99,1.25-2.87,3.4-4.3,1.79-6.63Z"/><path d="M255.85,143.57c.18.63.36,1.26.53,1.9l51.41-9.07c.15-3.95-.87-3.3,1.25-6.3,2.15-3.04,1.97-2.87,4.83-5.73.73-.73,1.55-1.72,2.37-2.78l-60.39,21.98Z"/><path d="M224.66,100.19c.54.37,1.07.76,1.61,1.14l41.16-49.05c-1.97-1.35-6.81-7.37-10.21-8.47l-32.55,56.39Z"/><path d="M324.32,88.52l-73.26,42.3c.29.59.54,1.2.81,1.8l71.73-26.11c.22-1.05.31-2.11.13-3.09-.36-1.97-2.15-.54-.9-7.52.81-4.54,1.32-5.75,1.48-7.37Z"/><path d="M255.85,185.9l74.7,27.19c2.12-1.81,4.43-3.49,5.53-5.99,1.25-2.87,3.4-4.66,1.61-7.88-.19-.34-.34-.66-.47-.97l-80.84-14.25c-.16.64-.35,1.27-.53,1.9Z"/><path d="M321.78,222.29l-69.91-25.45c-.27.6-.53,1.2-.81,1.8l75.51,43.59c-.85-2.69-2.39-6.68-4.45-8.28-3.22-2.51-4.12-1.43-3.76-4.66.31-2.75,1.01-4.2,3.43-7.01Z"/><path d="M258.39,172.52l58.77,10.36c.36-3.92.76-8.72.49-12.33h-59.11c-.05.65-.08,1.31-.15,1.96Z"/><path d="M201.83,89.55l17.27-47.44c-1.18-.36-.48-1.8-4.78.96-4.52,2.9-5.26,2.91-7.07,4.45l-7.32,41.5c.64.16,1.27.35,1.9.53Z"/><path d="M244.07,210.33l103.52,86.86c.81-.66,1.44-1.03,1.75-.92,1.43.54,3.94,2.15,6.45,1.07,2.51-1.07,4.83-2.87,5.73-4.83.9-1.97,2.69-5.01,1.79-6.09s-1.97-.72-4.48-2.87c-2.51-2.15-2.87-1.25-4.12-5.19-1.19-3.73-1.57-4.41-1.61-7.35l-107.88-62.29c-.37.54-.76,1.07-1.14,1.6Z"/><path d="M236.58,219.25c-.46.47-.92.93-1.39,1.39l91.18,108.67c.97.36,1.7.17,3.08-1.7,2.51-3.4,1.79-6.45,3.58-10.56,1.79-4.12,3.76-8.95,5.19-10.21.24-.21.67-.66,1.23-1.26l-102.88-86.32Z"/><path d="M201.83,239.92c-.63.18-1.26.36-1.9.53l9.95,56.41c1.51-.35,2.69-.66,3.72-1.12,1.57-.7,3.49-.38,7.57-2.69l-19.34-53.13Z"/><path d="M214.58,235.12c-.59.29-1.2.54-1.8.81l19.18,52.7c3.28-.99,3.83-1.6,4.92-1.13,1.25.54,3.94,1.79,4.48,2.33.54.54,8.77,8.95,8.06,12-.72,3.04-2.69,4.48-.9,7.34,1.79,2.87,2.69,4.3,4.66,6.27,1.97,1.97,2.33,3.04,7.16,3.58.8.09,1.74.12,2.75.12l-48.51-84.02Z"/><path d="M226.27,228.13c-.53.38-1.06.77-1.6,1.14l51.53,89.26c.81,0,1.51.03,2.05.12,3.4.54,8.6,1.97,12.36,2.33,3.76.36,1.25-.9,8.06.72,3.04.72,5.01.76,6.78.79l-79.18-94.36Z"/><path d="M124.76,110.21c.46-.47.92-.93,1.39-1.39L49.09,16.99c-.74.55-1.51.99-3.63,1.37-3.94.72-6.09,1.25-9.13.36s-3.94-1.07-9.31-4.66c-5.37-3.58-4.12-1.79-7.88-5.91C15.37,4.03,13.94,1.17,10.72.81,7.49.45,5.7-.26,5.17,2.96s-.72,5.37-.72,6.09c0,.07-.02.12-.05.17l120.35,100.99Z"/><path d="M126.15,220.64c-.47-.46-.93-.92-1.39-1.39l-10.6,8.89c1.1,1.27,2.08,2.48,2.8,3.45l9.18-10.95Z"/><path d="M159.5,89.55c.63-.18,1.26-.36,1.9-.53l-1.97-11.19c-.85.13-1.89.24-3.31.34-.26.02-.5.03-.74.05l4.12,11.33Z"/><path d="M135.07,101.33c.53-.38,1.06-.77,1.61-1.14l-23.16-40.12c-2.29-1.9-5.07-3.56-8.25-4.1-2.35-.4-4.3.18-7.52-3.04-3.22-3.22-5.01-2.15-5.73-6.8-.72-4.66.18-4.66-.72-8.42-.9-3.76,1.97-3.58-2.51-5.73-4.48-2.15-2.51.72-6.8-2.87-4.3-3.58-6.63-4.66-6.63-6.8s.54-3.4,2.87-3.58c2.33-.18,6.45-1.07,3.76-3.76-2.69-2.69-2.87-1.25-3.58-3.22-.72-1.97-.54-1.25.54-2.51s1.97-3.04-.72-5.19c-2.69-2.15-2.51-5.19-5.91-3.58-3.4,1.61-2.87,1.25-6.45,3.58-3.46,2.25-3.42,3.66-7.12,6.34l76.32,90.96Z"/><path d="M146.76,94.35c.59-.29,1.2-.54,1.8-.81l-6.24-17.13c-2.43-.43-4.47-.7-6.66-1.28l11.1,19.23Z"/><path d="M174.84,242.6c-.65-.05-1.31-.08-1.96-.15l-7.2,40.85c1.06,1.58,1.75,2.98,4.41,4.37,2.3,1.21,3.46,1.81,4.76,2.75v-47.82Z"/><path d="M161.4,240.44c-.64-.16-1.27-.35-1.9-.53l-12.6,34.61c2.92,1.26,5.95,2.3,8,2.74l6.49-36.82Z"/><path d="M188.46,242.45c-.65.06-1.31.1-1.96.15v56.1c2.12,1.21,2.64,1.87,6.33,1.87,2.47,0,4.44.11,5.9.11l-10.27-58.23Z"/><path d="M172.88,87.01c.65-.06,1.31-.1,1.96-.15v-14.36c-1.97.77-3.24,1.25-4.24,1.62l2.27,12.9Z"/><path d="M117.27,119.13L2.67,22.98c1.19,1.79,2.09,3.41,1.96,4.15-.36,1.97.36,4.83,1.25,6.45.9,1.61,1.25,2.33-1.07,5.37-2.33,3.04-6.45,3.94-4.12,5.73,2.33,1.79,3.94,3.04,5.91,4.66,1.97,1.61,4.12-.54,3.94,3.94-.09,2.23,1.03,5.14,2.16,7.75l103.42,59.71c.37-.54.76-1.07,1.14-1.61Z"/><path d="M109.47,196.85l-36.02,13.11c-.12,1.68,0,3.47,2.27,5.74.64.64,1.2,1.28,1.73,1.91l32.84-18.96c-.29-.59-.54-1.2-.81-1.8Z"/><path d="M102.8,170.56h-48.6c.87.76,1.64,1.4,3.25,1.8,2.87.72.72-1.43,4.83.9,3.82,2.16,4.41,1.86,6.77,5.24l33.89-5.98c-.06-.65-.1-1.31-.15-1.96Z"/><path d="M104.96,184l-30.65,5.41c-1.16.95-1.84,1.41-2.35,3.55-.26,1.11-.14,3.02.13,5.1l33.4-12.16c-.18-.63-.36-1.26-.53-1.9Z"/><path d="M116.12,208.72l-16.64,9.61c.96.97,1.93,1.96,3.63,2.56.4.14.77.26,1.13.36l13.02-10.92c-.38-.53-.77-1.06-1.14-1.61Z"/><path d="M110.28,130.82L18.57,77.87c.47.67.92,1.45,1.28,2.45,1.25,3.4.9,3.58,2.69,6.45s2.51,3.76,5.91,6.09c3.4,2.33,10.56,2.69,11.82,3.76,1.25,1.07,1.61,0-.18,3.4-1.79,3.4-1.61,4.66-1.07,5.73.12.23.37.77.65,1.46l69.81,25.41c.27-.6.53-1.2.81-1.8Z"/><path d="M102.8,158.91c.05-.65.08-1.31.15-1.96l-72.19-12.73c1.63,3.44,3.91,7.97,5.56,8.98,2.33,1.43,4.3,2.87,4.48,5.01.02.26-.03.49-.13.69h62.12Z"/><path d="M135.07,228.13l-10.98,13.09c.43.61,1.13,1.43,2.84,3.3.2.22.39.42.58.62l9.16-15.87c-.54-.37-1.07-.76-1.6-1.14Z"/><path d="M105.48,143.57l-72.79-26.5c-1.09.43-1.75,1.06-2.45,2.64-1.43,3.22-3.58,5.37-4.12,7.7-.4,1.72-1.28,2.17-1.14,3.95l79.98,14.1c.16-.64.35-1.27.53-1.9Z"/><path d="M178.53,212.61c-1.27,1.09-1.85,2.71-1.69,4.3.14,1.01.9,1.66,1.91,1.5.84.73,1.89.91,2.97.62,1.04.29,2.06.39,3.12.27,1.15.09,2.21-.04,3.33-.25,1.4-.27,2.77-.37,4.22-.37l14.23.02c.9,0,1.74-.11,2.52-.45,1.31-.57,1.74-2,1.07-3.25l1.11-1.51c1.02.91,2,1.68,3.2,2.23,5.97,2.77,13.23.92,15.81-5.35,2.24-5.43.68-12.51-2.97-17.04l-3.18-3.95c-.99-1.23-1.17-2.66-.55-4.11,1.09-2.56.59-4.79-1.22-6.89l-.16,1.18-1.39-2.85c-.54-1.11-.92-2.22-1.62-3.31-.11,1.39-.42,2.45-1,3.57-.62,1.19-.79,2.39-.79,3.76-.51-.52-.79-1.01-1.14-1.59-.71,3.72.42,6.38,3.24,8.67,1.24,1,2.24,2.08,3.18,3.36,1.32,1.82,2.64,3.52,3.65,5.53,1.43,2.84,2.04,5.91,1.62,9.06s-1.94,5.65-4.96,6.42c-1.55.4-3.11.4-4.67-.1-2.38-.76-4.3-2.96-4.3-5.54l.29-3.76c.45-5.94-1.84-11.99-4.83-17.08-2.15-3.67-4.57-7.07-7.39-10.27l-6.41-7.27c-3.04-3.45-5.97-6.61-7.38-11.18.67.3,1.31.49,2,.45-1.26-1.44-1.52-3.09-1.39-4.94.5.48.78.9,1.2,1.54.94-3.54-.28-7.82-2.42-10.74,1.08-.2,2.02.03,2.78.78-.02-1.02-.54-1.84-1.28-2.48-1-.85-1.76-1.83-2.29-3.03l-1.28-2.87c.86.54,1.66.96,2.72.75-.93-.64-1.48-1.51-1.84-2.56l-1.01-2.98c-.59-1.75-1.82-3.09-3.28-4.24.94-.04,1.78-.09,2.53-.69-1.32-.32-2.31-1.16-3.03-2.31-1.39-2.21-3.35-3.79-5.91-4.51.72-.31,1.36-.25,2.2-.29-2.37-1.8-5.38-2.66-8.32-2.29l-1.98.46c-1.96-1.51-4.17-2.48-6.62-2.86-.69-.11-1.11-.38-1.61-.85-1.6-1.52-3.59-2.69-5.7-3.34-.66-.2-1.35.04-1.86.35-.54.33-.64,1.12-.83,1.71-.81.79-1.81,1.42-2.34,2.46-.42.79-.44,1.68.07,2.37-.41,1.05-.64,2.12-.29,3.29l1.6-1.94c2.78,2.12,3.53,6.08,1.51,8.97-1.13,1.61-2.92,2.57-4.84,2.39-.37-.95-.42-1.8-.56-2.82-.69.49-.92,1.2-1.12,1.95l-.56-.37-.34,1.18c-.36.35-.82.78-.92,1.35-.3,1.71-.09,3.46.86,4.97l.24-.55.97,1.28.2-.94.82.82c.14-1.42,2-1.72,3.4-1.56.73.08,1.12.69,1.08,1.42-.05.84-.53,1.59-1.24,2.09l-2.13,1.48c-1.37.95-2.32,2.37-2.51,4.11.59-.41,1.05-.8,1.78-.95-.88,1.37-1.28,2.71-1.61,4.2-.28,1.25-.9,2.3-2.05,2.98.73.39,1.36.32,2.28.14-2.09,2.75-2.83,6.32-1.77,9.73.49-.99.89-1.85,1.8-2.43-.76,2.9-.71,5.65.07,8.42.39,1.37.51,2.64.58,4.1.54-.5.88-1.02,1.22-1.6l1.04,4.47c.34,1.46,1.05,2.75,2.09,4.01l.3-2.46c.14-.2.21-.18.19.04.42,1.13.83,2.17,1.56,3.1l1.96,2.51c.82,1.05,1.39,2.11,1.7,3.51.55-.73.78-1.5.94-2.35l2.06,3.97,1.38,13.25c.16,1.49.23,2.89.13,4.37l-.31,4.34c-.08,1.18-.37,2.33-.82,3.38-.36.83-1.03,1.16-1.92,1.09-1.34-.11-2.65.36-3.37,1.51-.91,1.44-1.46,4.17-.27,5.1.54-.12,1.01-.1,1.35.34.62.37,1.34.4,2.07.25,1.31.37,2.62.48,3.98.19,1.37.26,2.7.19,4.02-.18,1.24-.35,2.16-1.3,2.37-2.61l.43-2.69c.14-.84.62-1.54,1.34-1.94.65-.37,1-1.08.93-1.87-.15-1.83-.03-3.54.31-5.37.77-4.11,1.89-8.05,3.26-12.01l4.35,3.79c-.21,6.7,4.46,11.27,9.42,15.29l-3.81.29-2.1-.25c-1.19-.14-2.38.12-3.35.95Z"/></svg>